G04 #@! TF.FileFunction,Copper,L1,Top,Signal*
%FSLAX46Y46*%
G04 Gerber Fmt 4.6, Leading zero omitted, Abs format (unit mm)*
G04 Created by KiCad (PCBNEW 4.0.2+dfsg1-stable) date Пят 15 Ліп 2016 18:00:22*
%MOMM*%
G01*
G04 APERTURE LIST*
%ADD10C,0.100000*%
%ADD11C,1.998980*%
%ADD12C,2.000000*%
%ADD13R,3.500120X3.500120*%
%ADD14R,2.000000X1.900000*%
%ADD15C,1.900000*%
%ADD16R,1.727200X1.727200*%
%ADD17O,1.727200X1.727200*%
%ADD18R,2.032000X2.032000*%
%ADD19O,2.032000X2.032000*%
%ADD20C,1.524000*%
%ADD21R,0.900000X1.700000*%
%ADD22R,2.000000X1.000000*%
%ADD23R,2.000000X3.000000*%
%ADD24R,1.700000X0.900000*%
%ADD25C,2.824000*%
%ADD26R,2.235200X2.235200*%
%ADD27C,0.400000*%
G04 APERTURE END LIST*
D10*
D11*
X149860000Y-114300000D03*
X157480000Y-114300000D03*
D12*
X142240000Y-116840000D03*
X144780000Y-116840000D03*
X147320000Y-116840000D03*
X149860000Y-116840000D03*
X134620000Y-119380000D03*
X134620000Y-121920000D03*
X134620000Y-124460000D03*
X134620000Y-127000000D03*
X134620000Y-129540000D03*
X134620000Y-132080000D03*
X134620000Y-134620000D03*
X134620000Y-137160000D03*
X134620000Y-139700000D03*
X134620000Y-142240000D03*
X134620000Y-144780000D03*
X157480000Y-144780000D03*
X157480000Y-142240000D03*
X157480000Y-139700000D03*
X157480000Y-137160000D03*
X157480000Y-134620000D03*
X157480000Y-132080000D03*
X157480000Y-129540000D03*
X157480000Y-127000000D03*
X157480000Y-124460000D03*
X157480000Y-121920000D03*
X157480000Y-119380000D03*
D13*
X138280140Y-99060000D03*
X132280660Y-99060000D03*
X135280400Y-103759000D03*
D14*
X127000000Y-134620000D03*
D15*
X127000000Y-132080000D03*
D16*
X144018000Y-104902000D03*
D17*
X146558000Y-104902000D03*
D16*
X127000000Y-119380000D03*
D17*
X129540000Y-119380000D03*
D18*
X144780000Y-111760000D03*
D19*
X147320000Y-111760000D03*
D11*
X129540000Y-121920000D03*
X129540000Y-129540000D03*
D20*
X145034000Y-98806000D03*
X147574000Y-98806000D03*
X150114000Y-98806000D03*
X145034000Y-93726000D03*
X147574000Y-93726000D03*
X150114000Y-93726000D03*
D11*
X142240000Y-121920000D03*
X142240000Y-129540000D03*
X144780000Y-121920000D03*
X144780000Y-129540000D03*
D21*
X181938000Y-136144000D03*
X184838000Y-136144000D03*
X182192000Y-124206000D03*
X185092000Y-124206000D03*
X182065000Y-107950000D03*
X184965000Y-107950000D03*
X182192000Y-142748000D03*
X185092000Y-142748000D03*
X186764000Y-142748000D03*
X189664000Y-142748000D03*
X191336000Y-142748000D03*
X194236000Y-142748000D03*
X182192000Y-139446000D03*
X185092000Y-139446000D03*
X186510000Y-139446000D03*
X189410000Y-139446000D03*
X182192000Y-130429000D03*
X185092000Y-130429000D03*
X186510000Y-130429000D03*
X189410000Y-130429000D03*
X191336000Y-130429000D03*
X194236000Y-130429000D03*
X182192000Y-127127000D03*
X185092000Y-127127000D03*
X186510000Y-127127000D03*
X189410000Y-127127000D03*
X182065000Y-114681000D03*
X184965000Y-114681000D03*
X186637000Y-114681000D03*
X189537000Y-114681000D03*
X190955000Y-114681000D03*
X193855000Y-114681000D03*
X182065000Y-111379000D03*
X184965000Y-111379000D03*
X186383000Y-111379000D03*
X189283000Y-111379000D03*
X171630000Y-138938000D03*
X168730000Y-138938000D03*
X171630000Y-127762000D03*
X168730000Y-127762000D03*
X171630000Y-112268000D03*
X168730000Y-112268000D03*
D22*
X160750000Y-95470000D03*
X160750000Y-97790000D03*
D23*
X153670000Y-97790000D03*
D22*
X160750000Y-100070000D03*
X160750000Y-103090000D03*
X160750000Y-105410000D03*
D23*
X153670000Y-105410000D03*
D22*
X160750000Y-107690000D03*
D24*
X163830000Y-103050000D03*
X163830000Y-100150000D03*
D21*
X182065000Y-104140000D03*
X184965000Y-104140000D03*
X186510000Y-104140000D03*
X189410000Y-104140000D03*
X190955000Y-104140000D03*
X193855000Y-104140000D03*
X171884000Y-101092000D03*
X168984000Y-101092000D03*
X182065000Y-100965000D03*
X184965000Y-100965000D03*
X186510000Y-100965000D03*
X189410000Y-100965000D03*
X182065000Y-97790000D03*
X184965000Y-97790000D03*
D25*
X178830000Y-144930000D03*
D20*
X176530000Y-126750000D03*
X173990000Y-140810000D03*
X176530000Y-141830000D03*
X176530000Y-139790000D03*
X173990000Y-138770000D03*
D25*
X178830000Y-122430000D03*
D20*
X173990000Y-125730000D03*
X176530000Y-137750000D03*
X173990000Y-127770000D03*
X176530000Y-128790000D03*
X173990000Y-129810000D03*
X176530000Y-130830000D03*
X173990000Y-136730000D03*
D25*
X178830000Y-118260000D03*
D20*
X176530000Y-100080000D03*
X173990000Y-114140000D03*
X176530000Y-115160000D03*
X176530000Y-113120000D03*
X173990000Y-112100000D03*
D25*
X178830000Y-95760000D03*
D20*
X173990000Y-99060000D03*
X176530000Y-111080000D03*
X173990000Y-101100000D03*
X176530000Y-102120000D03*
X173990000Y-103140000D03*
X176530000Y-104160000D03*
X173990000Y-110060000D03*
D26*
X157480000Y-149606000D03*
D21*
X171884000Y-105156000D03*
X168984000Y-105156000D03*
D27*
X138280140Y-99060000D02*
X140462000Y-99060000D01*
X147574000Y-96774000D02*
X147574000Y-98806000D01*
X146812000Y-96012000D02*
X147574000Y-96774000D01*
X143510000Y-96012000D02*
X146812000Y-96012000D01*
X140462000Y-99060000D02*
X143510000Y-96012000D01*
X163576000Y-107690000D02*
X169158000Y-107690000D01*
X169158000Y-107690000D02*
X170246000Y-108778000D01*
X170246000Y-129794000D02*
X173974000Y-129794000D01*
X173974000Y-129794000D02*
X173990000Y-129810000D01*
X173990000Y-114140000D02*
X170246000Y-114140000D01*
X170180000Y-114300000D02*
X170246000Y-114300000D01*
X170180000Y-114206000D02*
X170180000Y-114300000D01*
X170246000Y-114140000D02*
X170180000Y-114206000D01*
X173990000Y-140810000D02*
X170848000Y-140810000D01*
X170926000Y-103140000D02*
X173990000Y-103140000D01*
X170246000Y-108778000D02*
X170246000Y-107254000D01*
X170246000Y-103820000D02*
X170926000Y-103140000D01*
X170246000Y-107254000D02*
X170246000Y-103820000D01*
X170246000Y-140208000D02*
X170246000Y-129794000D01*
X170246000Y-129794000D02*
X170246000Y-114300000D01*
X170246000Y-114300000D02*
X170246000Y-108778000D01*
X170848000Y-140810000D02*
X170246000Y-140208000D01*
X160750000Y-100070000D02*
X160750000Y-101568000D01*
X163582000Y-107690000D02*
X163576000Y-107690000D01*
X163576000Y-107690000D02*
X160750000Y-107690000D01*
X165608000Y-105664000D02*
X165481000Y-105791000D01*
X165481000Y-105791000D02*
X163582000Y-107690000D01*
X165608000Y-101854000D02*
X165608000Y-105664000D01*
X165354000Y-101600000D02*
X165608000Y-101854000D01*
X160782000Y-101600000D02*
X165354000Y-101600000D01*
X160750000Y-101568000D02*
X160782000Y-101600000D01*
X150114000Y-108712000D02*
X150114000Y-105410000D01*
X157982000Y-107690000D02*
X160750000Y-107690000D01*
X156972000Y-106680000D02*
X157982000Y-107690000D01*
X156972000Y-104140000D02*
X156972000Y-106680000D01*
X155702000Y-102870000D02*
X156972000Y-104140000D01*
X152654000Y-102870000D02*
X155702000Y-102870000D01*
X150114000Y-105410000D02*
X152654000Y-102870000D01*
X135280400Y-103759000D02*
X135280400Y-107340400D01*
X136652000Y-108712000D02*
X150114000Y-108712000D01*
X150114000Y-108712000D02*
X150368000Y-108712000D01*
X135280400Y-107340400D02*
X136652000Y-108712000D01*
X149860000Y-114300000D02*
X149860000Y-116840000D01*
X150368000Y-108712000D02*
X150368000Y-113792000D01*
X150368000Y-113792000D02*
X149860000Y-114300000D01*
X124460000Y-119380000D02*
X124460000Y-114579400D01*
X124460000Y-114579400D02*
X135280400Y-103759000D01*
X127000000Y-134620000D02*
X124460000Y-134620000D01*
X124460000Y-119380000D02*
X127000000Y-119380000D01*
X124460000Y-134620000D02*
X124460000Y-119380000D01*
X132280660Y-99060000D02*
X132280660Y-100759260D01*
X132280660Y-100759260D02*
X135280400Y-103759000D01*
X129540000Y-129540000D02*
X127000000Y-132080000D01*
X173990000Y-127770000D02*
X171638000Y-127770000D01*
X171638000Y-127770000D02*
X171630000Y-127762000D01*
X182192000Y-124206000D02*
X180721000Y-124079000D01*
X174625000Y-125095000D02*
X173990000Y-125730000D01*
X179705000Y-125095000D02*
X174625000Y-125095000D01*
X180721000Y-124079000D02*
X179705000Y-125095000D01*
X176530000Y-104160000D02*
X176530000Y-105156000D01*
X176530000Y-105156000D02*
X171884000Y-105156000D01*
X176530000Y-104160000D02*
X177820000Y-104160000D01*
X183515000Y-118110000D02*
X183642000Y-118110000D01*
X183515000Y-106045000D02*
X183515000Y-118110000D01*
X179705000Y-106045000D02*
X183515000Y-106045000D01*
X177820000Y-104160000D02*
X179705000Y-106045000D01*
X176530000Y-115160000D02*
X177390000Y-115160000D01*
X182245000Y-118110000D02*
X183642000Y-118110000D01*
X179705000Y-115570000D02*
X182245000Y-118110000D01*
X177800000Y-115570000D02*
X179705000Y-115570000D01*
X177390000Y-115160000D02*
X177800000Y-115570000D01*
X176530000Y-141830000D02*
X178660000Y-141830000D01*
X183642000Y-145923000D02*
X183642000Y-133350000D01*
X183515000Y-146050000D02*
X183642000Y-145923000D01*
X184150000Y-146050000D02*
X183515000Y-146050000D01*
X182880000Y-146050000D02*
X184150000Y-146050000D01*
X178660000Y-141830000D02*
X182880000Y-146050000D01*
X183642000Y-133350000D02*
X183642000Y-118110000D01*
X179197000Y-133350000D02*
X183642000Y-133350000D01*
X177185000Y-130830000D02*
X179197000Y-133350000D01*
X176530000Y-130830000D02*
X177185000Y-130830000D01*
X176530000Y-128790000D02*
X178955000Y-128790000D01*
X180594000Y-130429000D02*
X182192000Y-130429000D01*
X178955000Y-128790000D02*
X180594000Y-130429000D01*
X182192000Y-127127000D02*
X176907000Y-127127000D01*
X176907000Y-127127000D02*
X176530000Y-126750000D01*
X171884000Y-101092000D02*
X173982000Y-101092000D01*
X173982000Y-101092000D02*
X173990000Y-101100000D01*
X150114000Y-98806000D02*
X150114000Y-99568000D01*
X150114000Y-99568000D02*
X147066000Y-102616000D01*
X147066000Y-102616000D02*
X144272000Y-102616000D01*
X144272000Y-102616000D02*
X144018000Y-102870000D01*
X144018000Y-102870000D02*
X144018000Y-104902000D01*
X129540000Y-119380000D02*
X134620000Y-119380000D01*
X144780000Y-111760000D02*
X144780000Y-116840000D01*
X147320000Y-116840000D02*
X147320000Y-111760000D01*
X129540000Y-121920000D02*
X134620000Y-121920000D01*
X157480000Y-114300000D02*
X157480000Y-119380000D01*
X153670000Y-105410000D02*
X153670000Y-106426000D01*
X153670000Y-106426000D02*
X151638000Y-108458000D01*
X151638000Y-108458000D02*
X151638000Y-118618000D01*
X151638000Y-118618000D02*
X151384000Y-118872000D01*
X151384000Y-118872000D02*
X144272000Y-118872000D01*
X144272000Y-118872000D02*
X142240000Y-116840000D01*
X142748000Y-117348000D02*
X142240000Y-116840000D01*
X142240000Y-121920000D02*
X142240000Y-119380000D01*
X142240000Y-119380000D02*
X142240000Y-116840000D01*
X144780000Y-121920000D02*
X142240000Y-121920000D01*
X142240000Y-129540000D02*
X147320000Y-134620000D01*
X147320000Y-134620000D02*
X157480000Y-134620000D01*
X144780000Y-129540000D02*
X147320000Y-132080000D01*
X147320000Y-132080000D02*
X157480000Y-132080000D01*
X173990000Y-99060000D02*
X175260000Y-99060000D01*
X181430000Y-98425000D02*
X182065000Y-97790000D01*
X175895000Y-98425000D02*
X181430000Y-98425000D01*
X175260000Y-99060000D02*
X175895000Y-98425000D01*
X182065000Y-100965000D02*
X179705000Y-100965000D01*
X178820000Y-100080000D02*
X176530000Y-100080000D01*
X179705000Y-100965000D02*
X178820000Y-100080000D01*
X186764000Y-142748000D02*
X185092000Y-142748000D01*
X191336000Y-142748000D02*
X189664000Y-142748000D01*
X162052000Y-149352000D02*
X162052000Y-149860000D01*
X161544000Y-148844000D02*
X162052000Y-149352000D01*
X161544000Y-130048000D02*
X161544000Y-148844000D01*
X158496000Y-127000000D02*
X161544000Y-130048000D01*
X157480000Y-127000000D02*
X158496000Y-127000000D01*
X194236000Y-149934000D02*
X194236000Y-142748000D01*
X193548000Y-150622000D02*
X194236000Y-149934000D01*
X162814000Y-150622000D02*
X193548000Y-150622000D01*
X162052000Y-149860000D02*
X162814000Y-150622000D01*
X194236000Y-130429000D02*
X194236000Y-142748000D01*
X193855000Y-114681000D02*
X193855000Y-130048000D01*
X193855000Y-130048000D02*
X194236000Y-130429000D01*
X193855000Y-104140000D02*
X193855000Y-114681000D01*
X185092000Y-139446000D02*
X186510000Y-139446000D01*
X192786000Y-127000000D02*
X189537000Y-127000000D01*
X189537000Y-127000000D02*
X189410000Y-127127000D01*
X192786000Y-139954000D02*
X192786000Y-139192000D01*
X163068000Y-147828000D02*
X163068000Y-148590000D01*
X160528000Y-124460000D02*
X163068000Y-127000000D01*
X163068000Y-127000000D02*
X163068000Y-146812000D01*
X163068000Y-146812000D02*
X163068000Y-147828000D01*
X157480000Y-124460000D02*
X160528000Y-124460000D01*
X192786000Y-148590000D02*
X192786000Y-139954000D01*
X192786000Y-139954000D02*
X192786000Y-139700000D01*
X192024000Y-149352000D02*
X192786000Y-148590000D01*
X163830000Y-149352000D02*
X192024000Y-149352000D01*
X163068000Y-148590000D02*
X163830000Y-149352000D01*
X192786000Y-110998000D02*
X189664000Y-110998000D01*
X189664000Y-110998000D02*
X189283000Y-111379000D01*
X189410000Y-100965000D02*
X192405000Y-100965000D01*
X189410000Y-139446000D02*
X192532000Y-139446000D01*
X192532000Y-139446000D02*
X192786000Y-139192000D01*
X192786000Y-101346000D02*
X192786000Y-108712000D01*
X192786000Y-108712000D02*
X192786000Y-110998000D01*
X192786000Y-110998000D02*
X192786000Y-127000000D01*
X192786000Y-127000000D02*
X192786000Y-139192000D01*
X192405000Y-100965000D02*
X192786000Y-101346000D01*
X186510000Y-130429000D02*
X185092000Y-130429000D01*
X191336000Y-130429000D02*
X189410000Y-130429000D01*
X185092000Y-127127000D02*
X186510000Y-127127000D01*
X186637000Y-114681000D02*
X184965000Y-114681000D01*
X189537000Y-114681000D02*
X190955000Y-114681000D01*
X184965000Y-111379000D02*
X186383000Y-111379000D01*
X176530000Y-102120000D02*
X178320000Y-102120000D01*
X180340000Y-104140000D02*
X182065000Y-104140000D01*
X178320000Y-102120000D02*
X180340000Y-104140000D01*
X166698000Y-135890000D02*
X166698000Y-136906000D01*
X163322000Y-112268000D02*
X165481000Y-114427000D01*
X166370000Y-123444000D02*
X166370000Y-134366000D01*
X140208000Y-127508000D02*
X155194000Y-127508000D01*
X147828000Y-139700000D02*
X140208000Y-132080000D01*
X140208000Y-132080000D02*
X140208000Y-127508000D01*
X157480000Y-139700000D02*
X147828000Y-139700000D01*
X155194000Y-127508000D02*
X155194000Y-112268000D01*
X155194000Y-112268000D02*
X163322000Y-112268000D01*
X166698000Y-134694000D02*
X166370000Y-134366000D01*
X166698000Y-135890000D02*
X166698000Y-134694000D01*
X165481000Y-122555000D02*
X166370000Y-123444000D01*
X165481000Y-114427000D02*
X165481000Y-122555000D01*
X166698000Y-136906000D02*
X168730000Y-138938000D01*
X168730000Y-127762000D02*
X168730000Y-120396000D01*
X137160000Y-139700000D02*
X138938000Y-137922000D01*
X138938000Y-137922000D02*
X138938000Y-126492000D01*
X138938000Y-126492000D02*
X139446000Y-125984000D01*
X139446000Y-125984000D02*
X153162000Y-125984000D01*
X153162000Y-125984000D02*
X153924000Y-125222000D01*
X153924000Y-125222000D02*
X153924000Y-111760000D01*
X153924000Y-111760000D02*
X154432000Y-111252000D01*
X154432000Y-111252000D02*
X164338000Y-111252000D01*
X164338000Y-111252000D02*
X166751000Y-113665000D01*
X137160000Y-139700000D02*
X134620000Y-139700000D01*
X166751000Y-118417000D02*
X167206000Y-118872000D01*
X166751000Y-113665000D02*
X166751000Y-118417000D01*
X168730000Y-120396000D02*
X167206000Y-118872000D01*
X166624000Y-109982000D02*
X166624000Y-110162000D01*
X166624000Y-110162000D02*
X168730000Y-112268000D01*
X136906000Y-134874000D02*
X134620000Y-137160000D01*
X136906000Y-133350000D02*
X136906000Y-134874000D01*
X137414000Y-132842000D02*
X136906000Y-133350000D01*
X137414000Y-124968000D02*
X137414000Y-132842000D01*
X151892000Y-124968000D02*
X137414000Y-124968000D01*
X152654000Y-124206000D02*
X151892000Y-124968000D01*
X152654000Y-110744000D02*
X152654000Y-124206000D01*
X153416000Y-109982000D02*
X152654000Y-110744000D01*
X166624000Y-109982000D02*
X153416000Y-109982000D01*
X163830000Y-103050000D02*
X160790000Y-103050000D01*
X160790000Y-103050000D02*
X160750000Y-103090000D01*
X160750000Y-97790000D02*
X163322000Y-97790000D01*
X163830000Y-98298000D02*
X163576000Y-98044000D01*
X163830000Y-98298000D02*
X163830000Y-100150000D01*
X163322000Y-97790000D02*
X163576000Y-98044000D01*
X173990000Y-136730000D02*
X175055000Y-136730000D01*
X175641000Y-136144000D02*
X181938000Y-136144000D01*
X175055000Y-136730000D02*
X175641000Y-136144000D01*
X164592000Y-146812000D02*
X164592000Y-147066000D01*
X161544000Y-121920000D02*
X164592000Y-124968000D01*
X164592000Y-124968000D02*
X164592000Y-146812000D01*
X157480000Y-121920000D02*
X161544000Y-121920000D01*
X187960000Y-147320000D02*
X187960000Y-135890000D01*
X187198000Y-148082000D02*
X187960000Y-147320000D01*
X165608000Y-148082000D02*
X187198000Y-148082000D01*
X164592000Y-147066000D02*
X165608000Y-148082000D01*
X185092000Y-124206000D02*
X187960000Y-124206000D01*
X187960000Y-124206000D02*
X187960000Y-123825000D01*
X184965000Y-107950000D02*
X187960000Y-107950000D01*
X185092000Y-135890000D02*
X187960000Y-135890000D01*
X186690000Y-97790000D02*
X187960000Y-99060000D01*
X187960000Y-99060000D02*
X187960000Y-107950000D01*
X187960000Y-107950000D02*
X187960000Y-123825000D01*
X187960000Y-123825000D02*
X187960000Y-135890000D01*
X186690000Y-97790000D02*
X184965000Y-97790000D01*
X185092000Y-135890000D02*
X184838000Y-136144000D01*
X182065000Y-107950000D02*
X176100000Y-107950000D01*
X176100000Y-107950000D02*
X173990000Y-110060000D01*
X176530000Y-139790000D02*
X179234000Y-139790000D01*
X179234000Y-139790000D02*
X182192000Y-142748000D01*
X182192000Y-139446000D02*
X181356000Y-139446000D01*
X179660000Y-137750000D02*
X176530000Y-137750000D01*
X181356000Y-139446000D02*
X179660000Y-137750000D01*
X176530000Y-113120000D02*
X179160000Y-113120000D01*
X180721000Y-114681000D02*
X182065000Y-114681000D01*
X179160000Y-113120000D02*
X180721000Y-114681000D01*
X182065000Y-111379000D02*
X176829000Y-111379000D01*
X176829000Y-111379000D02*
X176530000Y-111080000D01*
X173990000Y-138770000D02*
X171798000Y-138770000D01*
X171798000Y-138770000D02*
X171630000Y-138938000D01*
X171630000Y-112268000D02*
X173822000Y-112268000D01*
X173822000Y-112268000D02*
X173990000Y-112100000D01*
X186510000Y-104140000D02*
X184965000Y-104140000D01*
X190955000Y-104140000D02*
X189410000Y-104140000D01*
X168984000Y-101092000D02*
X168984000Y-97462000D01*
X133604000Y-134620000D02*
X134620000Y-134620000D01*
X131572000Y-136652000D02*
X133604000Y-134620000D01*
X131572000Y-152146000D02*
X131572000Y-136652000D01*
X131826000Y-152400000D02*
X131572000Y-152146000D01*
X194056000Y-152400000D02*
X131826000Y-152400000D01*
X195834000Y-150622000D02*
X194056000Y-152400000D01*
X195834000Y-97028000D02*
X195834000Y-150622000D01*
X192024000Y-93218000D02*
X195834000Y-97028000D01*
X173228000Y-93218000D02*
X192024000Y-93218000D01*
X168984000Y-97462000D02*
X173228000Y-93218000D01*
X186510000Y-100965000D02*
X184965000Y-100965000D01*
X157480000Y-149606000D02*
X157480000Y-144780000D01*
X168984000Y-105156000D02*
X167894000Y-105156000D01*
X164558000Y-95470000D02*
X160750000Y-95470000D01*
X167132000Y-98044000D02*
X164558000Y-95470000D01*
X167132000Y-104394000D02*
X167132000Y-98044000D01*
X167894000Y-105156000D02*
X167132000Y-104394000D01*
X146558000Y-104902000D02*
X149098000Y-104902000D01*
X157006000Y-95470000D02*
X160750000Y-95470000D01*
X156972000Y-95504000D02*
X157006000Y-95470000D01*
X156972000Y-101600000D02*
X156972000Y-95504000D01*
X152400000Y-101600000D02*
X156972000Y-101600000D01*
X149098000Y-104902000D02*
X152400000Y-101600000D01*
X146558000Y-104902000D02*
X147066000Y-104902000D01*
M02*
