G04 #@! TF.FileFunction,Copper,L1,Top,Signal*
%FSLAX46Y46*%
G04 Gerber Fmt 4.6, Leading zero omitted, Abs format (unit mm)*
G04 Created by KiCad (PCBNEW 4.0.2+dfsg1-stable) date Пят 24 Чэр 2016 17:08:27*
%MOMM*%
G01*
G04 APERTURE LIST*
%ADD10C,0.100000*%
%ADD11R,2.000000X2.000000*%
%ADD12C,2.000000*%
%ADD13C,1.524000*%
%ADD14C,2.999740*%
%ADD15R,2.032000X2.032000*%
%ADD16O,2.032000X2.032000*%
%ADD17R,1.727200X2.032000*%
%ADD18O,1.727200X2.032000*%
%ADD19C,1.998980*%
%ADD20R,2.032000X1.727200*%
%ADD21O,2.032000X1.727200*%
%ADD22R,2.235200X2.235200*%
%ADD23C,0.400000*%
G04 APERTURE END LIST*
D10*
D11*
X157480000Y-106680000D03*
D12*
X154940000Y-106680000D03*
D11*
X157480000Y-111760000D03*
D12*
X154940000Y-111760000D03*
D11*
X137160000Y-106680000D03*
D12*
X139700000Y-106680000D03*
D11*
X137160000Y-111760000D03*
D12*
X139700000Y-111760000D03*
D11*
X147320000Y-116840000D03*
D12*
X147320000Y-119380000D03*
D11*
X147320000Y-124460000D03*
D12*
X147320000Y-121920000D03*
D11*
X114300000Y-129540000D03*
D12*
X116840000Y-129540000D03*
D11*
X121920000Y-129540000D03*
D12*
X119380000Y-129540000D03*
D11*
X180340000Y-129540000D03*
D12*
X177800000Y-129540000D03*
D11*
X172720000Y-129540000D03*
D12*
X175260000Y-129540000D03*
D13*
X114300000Y-149352000D03*
X114300000Y-151892000D03*
X114300000Y-146812000D03*
X116840000Y-153162000D03*
X116840000Y-150622000D03*
X116840000Y-148082000D03*
D14*
X118872000Y-143256000D03*
X118872000Y-156718000D03*
D15*
X147320000Y-157480000D03*
D16*
X144780000Y-157480000D03*
D17*
X170180000Y-157480000D03*
D18*
X167640000Y-157480000D03*
X165100000Y-157480000D03*
X162560000Y-157480000D03*
D17*
X157480000Y-157480000D03*
D18*
X154940000Y-157480000D03*
X152400000Y-157480000D03*
D19*
X162560000Y-106680000D03*
X162560000Y-114300000D03*
X160020000Y-111760000D03*
X160020000Y-119380000D03*
X132080000Y-106680000D03*
X132080000Y-114300000D03*
X134620000Y-111760000D03*
X134620000Y-119380000D03*
X147320000Y-114300000D03*
X147320000Y-106680000D03*
X142240000Y-127000000D03*
X142240000Y-134620000D03*
X116840000Y-132080000D03*
X116840000Y-139700000D03*
X121920000Y-132080000D03*
X121920000Y-139700000D03*
X180340000Y-132080000D03*
X180340000Y-139700000D03*
X172720000Y-132080000D03*
X172720000Y-139700000D03*
X152400000Y-148590000D03*
X144780000Y-148590000D03*
D12*
X139700000Y-137160000D03*
X142240000Y-137160000D03*
X144780000Y-137160000D03*
X147320000Y-137160000D03*
X149860000Y-137160000D03*
X160020000Y-137160000D03*
X162560000Y-137160000D03*
X165100000Y-137160000D03*
X167640000Y-137160000D03*
X148590000Y-139700000D03*
X151130000Y-139700000D03*
X160020000Y-152400000D03*
X157480000Y-152400000D03*
X154940000Y-152400000D03*
X152400000Y-152400000D03*
X149860000Y-152400000D03*
X147320000Y-152400000D03*
X144780000Y-152400000D03*
X142240000Y-152400000D03*
X139700000Y-152400000D03*
X162560000Y-152400000D03*
X165100000Y-152400000D03*
X167640000Y-152400000D03*
X152400000Y-137160000D03*
X154940000Y-137160000D03*
X157480000Y-137160000D03*
D20*
X128270000Y-148590000D03*
D21*
X128270000Y-151130000D03*
X128270000Y-153670000D03*
D22*
X147320000Y-133985000D03*
X154940000Y-140335000D03*
D23*
X157480000Y-137160000D02*
X157480000Y-117348000D01*
X160020000Y-114808000D02*
X160020000Y-111760000D01*
X157480000Y-117348000D02*
X160020000Y-114808000D01*
X134620000Y-111760000D02*
X134620000Y-114808000D01*
X152400000Y-134620000D02*
X152400000Y-137160000D01*
X148844000Y-131064000D02*
X152400000Y-134620000D01*
X145796000Y-131064000D02*
X148844000Y-131064000D01*
X140589000Y-129032000D02*
X145796000Y-131064000D01*
X140589000Y-123952000D02*
X140589000Y-129032000D01*
X134620000Y-114808000D02*
X140589000Y-123952000D01*
X142240000Y-127000000D02*
X149860000Y-127000000D01*
X154940000Y-132080000D02*
X154940000Y-137160000D01*
X149860000Y-127000000D02*
X154940000Y-132080000D01*
X121920000Y-132080000D02*
X148844000Y-132080000D01*
X149860000Y-133096000D02*
X149860000Y-137160000D01*
X148844000Y-132080000D02*
X149860000Y-133096000D01*
X113538000Y-149352000D02*
X113030000Y-149860000D01*
X113030000Y-149860000D02*
X113030000Y-158750000D01*
X113030000Y-158750000D02*
X129540000Y-158750000D01*
X129540000Y-158750000D02*
X135890000Y-158750000D01*
X135890000Y-158750000D02*
X135890000Y-147320000D01*
X135890000Y-147320000D02*
X137160000Y-146050000D01*
X137160000Y-146050000D02*
X176530000Y-146050000D01*
X176530000Y-146050000D02*
X177800000Y-144780000D01*
X177800000Y-144780000D02*
X177800000Y-134620000D01*
X177800000Y-134620000D02*
X172720000Y-134620000D01*
X172720000Y-134620000D02*
X172720000Y-134620000D01*
X172720000Y-134620000D02*
X170180000Y-132080000D01*
X170180000Y-132080000D02*
X161290000Y-132080000D01*
X161290000Y-132080000D02*
X160020000Y-133350000D01*
X160020000Y-133350000D02*
X160020000Y-137160000D01*
X114300000Y-149352000D02*
X113538000Y-149352000D01*
X122174000Y-156210000D02*
X122174000Y-157099000D01*
X162560000Y-133350000D02*
X162560000Y-137160000D01*
X170180000Y-133350000D02*
X162560000Y-133350000D01*
X172720000Y-135890000D02*
X170180000Y-133350000D01*
X175895000Y-135890000D02*
X172720000Y-135890000D01*
X176530000Y-136525000D02*
X175895000Y-135890000D01*
X176530000Y-144145000D02*
X176530000Y-136525000D01*
X175895000Y-144780000D02*
X176530000Y-144145000D01*
X135890000Y-144780000D02*
X175895000Y-144780000D01*
X134620000Y-146050000D02*
X135890000Y-144780000D01*
X134620000Y-156210000D02*
X134620000Y-146050000D01*
X133350000Y-157480000D02*
X134620000Y-156210000D01*
X122555000Y-157480000D02*
X133350000Y-157480000D01*
X122174000Y-157099000D02*
X122555000Y-157480000D01*
X114300000Y-151892000D02*
X114300000Y-153670000D01*
X122174000Y-156210000D02*
X122174000Y-156464000D01*
X120396000Y-154432000D02*
X122174000Y-156210000D01*
X118364000Y-154432000D02*
X120396000Y-154432000D01*
X117856000Y-154940000D02*
X118364000Y-154432000D01*
X115570000Y-154940000D02*
X117856000Y-154940000D01*
X114300000Y-153670000D02*
X115570000Y-154940000D01*
X114300000Y-146812000D02*
X114300000Y-134620000D01*
X139700000Y-134620000D02*
X139700000Y-137160000D01*
X114300000Y-134620000D02*
X139700000Y-134620000D01*
X116840000Y-153162000D02*
X122047000Y-153162000D01*
X165100000Y-135255000D02*
X165100000Y-137160000D01*
X164465000Y-134620000D02*
X165100000Y-135255000D01*
X170180000Y-134620000D02*
X164465000Y-134620000D01*
X172720000Y-137160000D02*
X170180000Y-134620000D01*
X172720000Y-137160000D02*
X172720000Y-137160000D01*
X175260000Y-137160000D02*
X172720000Y-137160000D01*
X175260000Y-142875000D02*
X175260000Y-137160000D01*
X174625000Y-143510000D02*
X175260000Y-142875000D01*
X134620000Y-143510000D02*
X174625000Y-143510000D01*
X133350000Y-144780000D02*
X134620000Y-143510000D01*
X133350000Y-155575000D02*
X133350000Y-144780000D01*
X132715000Y-156210000D02*
X133350000Y-155575000D01*
X125095000Y-156210000D02*
X132715000Y-156210000D01*
X122047000Y-153162000D02*
X125095000Y-156210000D01*
X116840000Y-150622000D02*
X127762000Y-150622000D01*
X127762000Y-150622000D02*
X128270000Y-151130000D01*
X142240000Y-137160000D02*
X142240000Y-134620000D01*
X162560000Y-157480000D02*
X165100000Y-160020000D01*
X180340000Y-139700000D02*
X180340000Y-139700000D01*
X180340000Y-160020000D02*
X180340000Y-139700000D01*
X165100000Y-160020000D02*
X180340000Y-160020000D01*
X162560000Y-157480000D02*
X160020000Y-160020000D01*
X154940000Y-160020000D02*
X154940000Y-157480000D01*
X160020000Y-160020000D02*
X154940000Y-160020000D01*
X121920000Y-139700000D02*
X140970000Y-139700000D01*
X142240000Y-138430000D02*
X142240000Y-137160000D01*
X140970000Y-139700000D02*
X142240000Y-138430000D01*
X116840000Y-148082000D02*
X116840000Y-139700000D01*
X142240000Y-137160000D02*
X142240000Y-136652000D01*
X147320000Y-157480000D02*
X147320000Y-152400000D01*
X144780000Y-148590000D02*
X139700000Y-148590000D01*
X139700000Y-157480000D02*
X144780000Y-157480000D01*
X137160000Y-154940000D02*
X139700000Y-157480000D01*
X137160000Y-151130000D02*
X137160000Y-154940000D01*
X139700000Y-148590000D02*
X137160000Y-151130000D01*
X167640000Y-157480000D02*
X167640000Y-152400000D01*
X165100000Y-152400000D02*
X165100000Y-157480000D01*
X157480000Y-157480000D02*
X157480000Y-152400000D01*
X152400000Y-148590000D02*
X152400000Y-152400000D01*
X128270000Y-148590000D02*
X128270000Y-140970000D01*
X144780000Y-139700000D02*
X144780000Y-137160000D01*
X143510000Y-140970000D02*
X144780000Y-139700000D01*
X128270000Y-140970000D02*
X143510000Y-140970000D01*
X128270000Y-153670000D02*
X130810000Y-153670000D01*
X167640000Y-141605000D02*
X167640000Y-137160000D01*
X167005000Y-142240000D02*
X167640000Y-141605000D01*
X132715000Y-142240000D02*
X167005000Y-142240000D01*
X132080000Y-142875000D02*
X132715000Y-142240000D01*
X132080000Y-152400000D02*
X132080000Y-142875000D01*
X130810000Y-153670000D02*
X132080000Y-152400000D01*
X147320000Y-137160000D02*
X147320000Y-133985000D01*
X154940000Y-140335000D02*
X151765000Y-140335000D01*
X151765000Y-140335000D02*
X151130000Y-139700000D01*
M02*
