G04 #@! TF.FileFunction,Copper,L1,Top,Signal*
%FSLAX46Y46*%
G04 Gerber Fmt 4.6, Leading zero omitted, Abs format (unit mm)*
G04 Created by KiCad (PCBNEW 4.0.2+dfsg1-stable) date Аўт 17 Тра 2016 11:54:28*
%MOMM*%
G01*
G04 APERTURE LIST*
%ADD10C,0.100000*%
%ADD11C,1.524000*%
%ADD12C,2.999740*%
%ADD13R,2.032000X1.727200*%
%ADD14O,2.032000X1.727200*%
%ADD15O,1.600000X1.600000*%
%ADD16C,2.000000*%
%ADD17R,1.727200X1.727200*%
%ADD18O,1.727200X1.727200*%
%ADD19R,2.235200X2.235200*%
%ADD20C,0.750000*%
%ADD21C,2.000000*%
G04 APERTURE END LIST*
D10*
D11*
X122682000Y-59690000D03*
X125222000Y-59690000D03*
X120142000Y-59690000D03*
X126492000Y-57150000D03*
X123952000Y-57150000D03*
X121412000Y-57150000D03*
D12*
X116586000Y-55118000D03*
X130048000Y-55118000D03*
D13*
X119380000Y-78740000D03*
D14*
X119380000Y-76200000D03*
X119380000Y-73660000D03*
X119380000Y-71120000D03*
X119380000Y-68580000D03*
D13*
X157480000Y-81280000D03*
D14*
X157480000Y-83820000D03*
X157480000Y-86360000D03*
X157480000Y-88900000D03*
D13*
X157480000Y-66040000D03*
D14*
X157480000Y-68580000D03*
X157480000Y-71120000D03*
X157480000Y-73660000D03*
X157480000Y-76200000D03*
X157480000Y-78740000D03*
D13*
X114300000Y-88900000D03*
D14*
X114300000Y-86360000D03*
X114300000Y-83820000D03*
X114300000Y-81280000D03*
X114300000Y-78740000D03*
D15*
X132080000Y-88900000D03*
X132080000Y-86360000D03*
X132080000Y-83820000D03*
X132080000Y-81280000D03*
X132080000Y-78740000D03*
X132080000Y-76200000D03*
X132080000Y-73660000D03*
X132080000Y-71120000D03*
X132080000Y-68580000D03*
X124460000Y-68580000D03*
X124460000Y-71120000D03*
X124460000Y-73660000D03*
X124460000Y-76200000D03*
X124460000Y-78740000D03*
X124460000Y-81280000D03*
X124460000Y-83820000D03*
X124460000Y-86360000D03*
X124460000Y-88900000D03*
D16*
X152400000Y-60960000D03*
X152400000Y-63500000D03*
X152400000Y-66040000D03*
X152400000Y-68580000D03*
X152400000Y-71120000D03*
X152400000Y-81280000D03*
X152400000Y-83820000D03*
X152400000Y-86360000D03*
X152400000Y-88900000D03*
X149860000Y-71120000D03*
X149860000Y-73660000D03*
X137160000Y-81280000D03*
X137160000Y-78740000D03*
X137160000Y-76200000D03*
X137160000Y-73660000D03*
X137160000Y-71120000D03*
X137160000Y-68580000D03*
X137160000Y-66040000D03*
X137160000Y-63500000D03*
X137160000Y-60960000D03*
X137160000Y-83820000D03*
X137160000Y-86360000D03*
X137160000Y-88900000D03*
X152400000Y-73660000D03*
X152400000Y-76200000D03*
X152400000Y-78740000D03*
D17*
X157480000Y-53340000D03*
D18*
X160020000Y-53340000D03*
X157480000Y-55880000D03*
X160020000Y-55880000D03*
X157480000Y-58420000D03*
X160020000Y-58420000D03*
X157480000Y-60960000D03*
X160020000Y-60960000D03*
D19*
X132080000Y-63500000D03*
D20*
X124460000Y-78740000D02*
X119380000Y-78740000D01*
X119380000Y-76200000D02*
X124460000Y-76200000D01*
X124460000Y-73660000D02*
X119380000Y-73660000D01*
X124460000Y-71120000D02*
X119380000Y-71120000D01*
X157480000Y-66040000D02*
X162560000Y-66040000D01*
X148590000Y-71120000D02*
X149860000Y-71120000D01*
X147320000Y-72390000D02*
X148590000Y-71120000D01*
X147320000Y-92710000D02*
X147320000Y-72390000D01*
X148590000Y-93980000D02*
X147320000Y-92710000D01*
X162560000Y-93980000D02*
X148590000Y-93980000D01*
X162560000Y-66040000D02*
X162560000Y-93980000D01*
X149860000Y-73660000D02*
X149860000Y-91440000D01*
X160020000Y-68580000D02*
X157480000Y-68580000D01*
X160020000Y-91440000D02*
X160020000Y-68580000D01*
X149860000Y-91440000D02*
X160020000Y-91440000D01*
X152400000Y-71120000D02*
X157480000Y-71120000D01*
X152400000Y-73660000D02*
X157480000Y-73660000D01*
X157480000Y-76200000D02*
X152400000Y-76200000D01*
X152400000Y-78740000D02*
X157480000Y-78740000D01*
X132080000Y-88900000D02*
X137160000Y-88900000D01*
X137160000Y-86360000D02*
X132080000Y-86360000D01*
X132080000Y-83820000D02*
X137160000Y-83820000D01*
X137160000Y-81280000D02*
X132080000Y-81280000D01*
X132080000Y-78740000D02*
X137160000Y-78740000D01*
X137160000Y-76200000D02*
X132080000Y-76200000D01*
X137160000Y-73660000D02*
X132080000Y-73660000D01*
X132080000Y-71120000D02*
X137160000Y-71120000D01*
X152400000Y-81280000D02*
X157480000Y-81280000D01*
X157480000Y-83820000D02*
X152400000Y-83820000D01*
X152400000Y-86360000D02*
X157480000Y-86360000D01*
X157480000Y-88900000D02*
X152400000Y-88900000D01*
D21*
X119888000Y-81280000D02*
X118872000Y-81280000D01*
D20*
X119888000Y-81280000D02*
X124460000Y-81280000D01*
X114300000Y-81280000D02*
X118872000Y-81280000D01*
D21*
X120192800Y-83820000D02*
X118973600Y-83820000D01*
D20*
X124460000Y-83820000D02*
X120192800Y-83820000D01*
X118973600Y-83820000D02*
X114300000Y-83820000D01*
D21*
X120446800Y-86360000D02*
X119481600Y-86360000D01*
X119380000Y-86461600D02*
X119380000Y-86360000D01*
X119481600Y-86360000D02*
X119380000Y-86461600D01*
D20*
X114300000Y-86360000D02*
X119380000Y-86360000D01*
X120446800Y-86360000D02*
X124460000Y-86360000D01*
D21*
X120497600Y-88900000D02*
X119329200Y-88900000D01*
D20*
X124460000Y-88900000D02*
X120497600Y-88900000D01*
X119329200Y-88900000D02*
X114300000Y-88900000D01*
X122682000Y-59690000D02*
X122682000Y-62738000D01*
X123444000Y-63500000D02*
X132080000Y-63500000D01*
X122682000Y-62738000D02*
X123444000Y-63500000D01*
X125222000Y-59690000D02*
X133350000Y-60960000D01*
X134620000Y-59690000D02*
X137160000Y-60960000D01*
X133350000Y-60960000D02*
X134620000Y-59690000D01*
X132080000Y-68580000D02*
X127000000Y-68580000D01*
X120142000Y-65278000D02*
X120142000Y-59690000D01*
X121920000Y-66040000D02*
X120142000Y-65278000D01*
X127000000Y-66040000D02*
X121920000Y-66040000D01*
X127000000Y-68580000D02*
X127000000Y-66040000D01*
X137160000Y-68580000D02*
X132080000Y-68580000D01*
X126492000Y-57150000D02*
X126492000Y-56388000D01*
X138430000Y-63500000D02*
X137160000Y-63500000D01*
X139700000Y-62230000D02*
X138430000Y-63500000D01*
X139700000Y-55880000D02*
X139700000Y-62230000D01*
X133350000Y-52070000D02*
X139700000Y-55880000D01*
X127000000Y-52070000D02*
X133350000Y-52070000D01*
X126492000Y-56388000D02*
X127000000Y-52070000D01*
X121412000Y-57150000D02*
X119380000Y-57150000D01*
X118110000Y-67310000D02*
X119380000Y-68580000D01*
X118110000Y-58420000D02*
X118110000Y-67310000D01*
X119380000Y-57150000D02*
X118110000Y-58420000D01*
X114300000Y-78740000D02*
X114300000Y-69850000D01*
X115570000Y-68580000D02*
X119380000Y-68580000D01*
X114300000Y-69850000D02*
X115570000Y-68580000D01*
X152400000Y-54610000D02*
X152400000Y-60960000D01*
X146050000Y-50800000D02*
X152400000Y-54610000D01*
X123190000Y-50800000D02*
X146050000Y-50800000D01*
X121412000Y-57658000D02*
X123190000Y-50800000D01*
X118110000Y-68580000D02*
X124460000Y-68580000D01*
X118110000Y-68580000D02*
X119380000Y-68580000D01*
X157480000Y-60960000D02*
X154940000Y-60960000D01*
X154940000Y-60960000D02*
X152400000Y-63500000D01*
X152400000Y-68580000D02*
X154940000Y-68580000D01*
X160020000Y-63500000D02*
X160020000Y-60960000D01*
X154940000Y-63500000D02*
X160020000Y-63500000D01*
X154940000Y-68580000D02*
X154940000Y-63500000D01*
M02*
