G04 #@! TF.FileFunction,Copper,L1,Top,Signal*
%FSLAX46Y46*%
G04 Gerber Fmt 4.6, Leading zero omitted, Abs format (unit mm)*
G04 Created by KiCad (PCBNEW 4.0.2+dfsg1-stable) date Пят 15 Ліп 2016 17:59:51*
%MOMM*%
G01*
G04 APERTURE LIST*
%ADD10C,0.100000*%
%ADD11C,1.524000*%
%ADD12C,2.999740*%
%ADD13R,2.032000X1.727200*%
%ADD14O,2.032000X1.727200*%
%ADD15R,1.727200X2.032000*%
%ADD16O,1.727200X2.032000*%
%ADD17O,1.600000X1.600000*%
%ADD18C,2.000000*%
%ADD19R,0.900000X1.700000*%
%ADD20C,0.400000*%
G04 APERTURE END LIST*
D10*
D11*
X174752000Y-107950000D03*
X177292000Y-107950000D03*
X172212000Y-107950000D03*
X178562000Y-105410000D03*
X176022000Y-105410000D03*
X173482000Y-105410000D03*
D12*
X168656000Y-103378000D03*
X182118000Y-103378000D03*
D13*
X132080000Y-129540000D03*
D14*
X132080000Y-127000000D03*
X132080000Y-124460000D03*
X132080000Y-121920000D03*
X132080000Y-119380000D03*
D13*
X132080000Y-114300000D03*
D14*
X132080000Y-111760000D03*
X132080000Y-109220000D03*
X132080000Y-106680000D03*
X132080000Y-104140000D03*
D15*
X175260000Y-118110000D03*
D16*
X177800000Y-118110000D03*
X180340000Y-118110000D03*
D17*
X144780000Y-129540000D03*
X144780000Y-127000000D03*
X144780000Y-124460000D03*
X144780000Y-121920000D03*
X144780000Y-119380000D03*
X144780000Y-116840000D03*
X144780000Y-114300000D03*
X144780000Y-111760000D03*
X144780000Y-109220000D03*
X137160000Y-109220000D03*
X137160000Y-111760000D03*
X137160000Y-114300000D03*
X137160000Y-116840000D03*
X137160000Y-119380000D03*
X137160000Y-121920000D03*
X137160000Y-124460000D03*
X137160000Y-127000000D03*
X137160000Y-129540000D03*
D18*
X165100000Y-101600000D03*
X165100000Y-104140000D03*
X165100000Y-106680000D03*
X165100000Y-109220000D03*
X165100000Y-111760000D03*
X165100000Y-121920000D03*
X165100000Y-124460000D03*
X165100000Y-127000000D03*
X165100000Y-129540000D03*
X162560000Y-110490000D03*
X162560000Y-113030000D03*
X149860000Y-121920000D03*
X149860000Y-119380000D03*
X149860000Y-116840000D03*
X149860000Y-114300000D03*
X149860000Y-111760000D03*
X149860000Y-109220000D03*
X149860000Y-106680000D03*
X149860000Y-104140000D03*
X149860000Y-101600000D03*
X149860000Y-124460000D03*
X149860000Y-127000000D03*
X149860000Y-129540000D03*
X165100000Y-114300000D03*
X165100000Y-116840000D03*
X165100000Y-119380000D03*
D19*
X162740000Y-101600000D03*
X159840000Y-101600000D03*
D20*
X174752000Y-107950000D02*
X174752000Y-109728000D01*
X167640000Y-119380000D02*
X165100000Y-121920000D01*
X167640000Y-116840000D02*
X167640000Y-119380000D01*
X174752000Y-109728000D02*
X167640000Y-116840000D01*
X177292000Y-107950000D02*
X177292000Y-109728000D01*
X166370000Y-124460000D02*
X165100000Y-124460000D01*
X170180000Y-120650000D02*
X166370000Y-124460000D01*
X170180000Y-116840000D02*
X170180000Y-120650000D01*
X177292000Y-109728000D02*
X170180000Y-116840000D01*
X165100000Y-101600000D02*
X162740000Y-101600000D01*
X172212000Y-107950000D02*
X172212000Y-106172000D01*
X166370000Y-100330000D02*
X165100000Y-101600000D01*
X170180000Y-100330000D02*
X166370000Y-100330000D01*
X171450000Y-101600000D02*
X170180000Y-100330000D01*
X171450000Y-105410000D02*
X171450000Y-101600000D01*
X172212000Y-106172000D02*
X171450000Y-105410000D01*
X178562000Y-105410000D02*
X178562000Y-107442000D01*
X167640000Y-127000000D02*
X165100000Y-127000000D01*
X171450000Y-123190000D02*
X167640000Y-127000000D01*
X171450000Y-118110000D02*
X171450000Y-123190000D01*
X179070000Y-110490000D02*
X171450000Y-118110000D01*
X179070000Y-107950000D02*
X179070000Y-110490000D01*
X178562000Y-107442000D02*
X179070000Y-107950000D01*
X176022000Y-105410000D02*
X176022000Y-104648000D01*
X176022000Y-104648000D02*
X177800000Y-102870000D01*
X177800000Y-102870000D02*
X178435000Y-102870000D01*
X178435000Y-102870000D02*
X180975000Y-105410000D01*
X180975000Y-105410000D02*
X180975000Y-112395000D01*
X180975000Y-112395000D02*
X177800000Y-115570000D01*
X177800000Y-115570000D02*
X177800000Y-118110000D01*
X161290000Y-99060000D02*
X161290000Y-104140000D01*
X173482000Y-99822000D02*
X172720000Y-99060000D01*
X172720000Y-99060000D02*
X161290000Y-99060000D01*
X173482000Y-105410000D02*
X173482000Y-99822000D01*
X161290000Y-104140000D02*
X165100000Y-104140000D01*
X137160000Y-129540000D02*
X132080000Y-129540000D01*
X132080000Y-127000000D02*
X137160000Y-127000000D01*
X137160000Y-124460000D02*
X132080000Y-124460000D01*
X132080000Y-121920000D02*
X137160000Y-121920000D01*
X137160000Y-119380000D02*
X134620000Y-116840000D01*
X134620000Y-116840000D02*
X132080000Y-114300000D01*
X137160000Y-116840000D02*
X132080000Y-111760000D01*
X132080000Y-109220000D02*
X137160000Y-114300000D01*
X137160000Y-111760000D02*
X132080000Y-106680000D01*
X175260000Y-118110000D02*
X175260000Y-121920000D01*
X167640000Y-129540000D02*
X165100000Y-129540000D01*
X175260000Y-121920000D02*
X167640000Y-129540000D01*
X180340000Y-118110000D02*
X180340000Y-120650000D01*
X160020000Y-106680000D02*
X165100000Y-106680000D01*
X160020000Y-132080000D02*
X160020000Y-106680000D01*
X168910000Y-132080000D02*
X160020000Y-132080000D01*
X180340000Y-120650000D02*
X168910000Y-132080000D01*
X144780000Y-129540000D02*
X149860000Y-129540000D01*
X144780000Y-127000000D02*
X149860000Y-127000000D01*
X149860000Y-124460000D02*
X144780000Y-124460000D01*
X144780000Y-121920000D02*
X149860000Y-121920000D01*
X149860000Y-119380000D02*
X144780000Y-119380000D01*
X144780000Y-116840000D02*
X149860000Y-116840000D01*
X149860000Y-114300000D02*
X144780000Y-114300000D01*
X144780000Y-111760000D02*
X149860000Y-111760000D01*
X149860000Y-109220000D02*
X144780000Y-109220000D01*
X159840000Y-101600000D02*
X154940000Y-101600000D01*
X137160000Y-99060000D02*
X132080000Y-104140000D01*
X152400000Y-99060000D02*
X137160000Y-99060000D01*
X154940000Y-101600000D02*
X152400000Y-99060000D01*
X132080000Y-119380000D02*
X129540000Y-116840000D01*
X129540000Y-104140000D02*
X132080000Y-104140000D01*
X129540000Y-116840000D02*
X129540000Y-104140000D01*
X137160000Y-109220000D02*
X132080000Y-104140000D01*
M02*
