G04 #@! TF.FileFunction,Copper,L1,Top,Signal*
%FSLAX46Y46*%
G04 Gerber Fmt 4.6, Leading zero omitted, Abs format (unit mm)*
G04 Created by KiCad (PCBNEW 4.0.2+dfsg1-stable) date Пт 14 окт 2016 09:29:47*
%MOMM*%
G01*
G04 APERTURE LIST*
%ADD10C,0.100000*%
%ADD11R,2.000000X2.000000*%
%ADD12C,2.000000*%
%ADD13R,2.032000X2.032000*%
%ADD14O,2.032000X2.032000*%
%ADD15R,1.727200X1.727200*%
%ADD16O,1.727200X1.727200*%
%ADD17C,1.998980*%
%ADD18C,1.524000*%
%ADD19R,3.500120X3.500120*%
%ADD20R,2.000000X1.000000*%
%ADD21R,2.000000X3.000000*%
%ADD22R,1.000000X2.000000*%
%ADD23R,3.000000X2.000000*%
%ADD24C,0.750000*%
G04 APERTURE END LIST*
D10*
D11*
X119380000Y-127000000D03*
D12*
X119380000Y-124460000D03*
D11*
X114300000Y-124460000D03*
D12*
X114300000Y-121920000D03*
D13*
X154940000Y-83820000D03*
D14*
X157480000Y-83820000D03*
D13*
X144780000Y-93980000D03*
D14*
X147320000Y-93980000D03*
D13*
X119380000Y-104140000D03*
D14*
X119380000Y-106680000D03*
D13*
X114300000Y-104140000D03*
D14*
X114300000Y-101600000D03*
D15*
X154940000Y-86360000D03*
D16*
X157480000Y-86360000D03*
X154940000Y-88900000D03*
X157480000Y-88900000D03*
X154940000Y-91440000D03*
X157480000Y-91440000D03*
D17*
X119380000Y-119380000D03*
X119380000Y-111760000D03*
X152400000Y-101600000D03*
X152400000Y-109220000D03*
X142240000Y-109220000D03*
X142240000Y-116840000D03*
X149860000Y-114300000D03*
X149860000Y-121920000D03*
X114300000Y-116840000D03*
X114300000Y-109220000D03*
D12*
X142240000Y-99060000D03*
X144780000Y-99060000D03*
X147320000Y-99060000D03*
X149860000Y-99060000D03*
X134620000Y-101600000D03*
X134620000Y-104140000D03*
X134620000Y-106680000D03*
X134620000Y-109220000D03*
X134620000Y-111760000D03*
X134620000Y-114300000D03*
X134620000Y-116840000D03*
X134620000Y-119380000D03*
X134620000Y-121920000D03*
X134620000Y-124460000D03*
X134620000Y-127000000D03*
X157480000Y-127000000D03*
X157480000Y-124460000D03*
X157480000Y-121920000D03*
X157480000Y-119380000D03*
X157480000Y-116840000D03*
X157480000Y-114300000D03*
X157480000Y-111760000D03*
X157480000Y-109220000D03*
X157480000Y-106680000D03*
X157480000Y-104140000D03*
X157480000Y-101600000D03*
D18*
X132080000Y-88900000D03*
X132080000Y-91440000D03*
X132080000Y-93980000D03*
X127000000Y-88900000D03*
X127000000Y-91440000D03*
X127000000Y-93980000D03*
D19*
X123040140Y-83820000D03*
X117040660Y-83820000D03*
X120040400Y-88519000D03*
D11*
X121920000Y-73660000D03*
D12*
X124460000Y-73660000D03*
D13*
X156845000Y-74295000D03*
D14*
X156845000Y-76835000D03*
D15*
X162560000Y-101600000D03*
D16*
X165100000Y-101600000D03*
X162560000Y-104140000D03*
X165100000Y-104140000D03*
X162560000Y-106680000D03*
X165100000Y-106680000D03*
X162560000Y-109220000D03*
X165100000Y-109220000D03*
X162560000Y-111760000D03*
X165100000Y-111760000D03*
X162560000Y-114300000D03*
X165100000Y-114300000D03*
X162560000Y-116840000D03*
X165100000Y-116840000D03*
X162560000Y-119380000D03*
X165100000Y-119380000D03*
X162560000Y-121920000D03*
X165100000Y-121920000D03*
D17*
X144780000Y-127000000D03*
X152400000Y-127000000D03*
D18*
X134620000Y-71120000D03*
X134620000Y-73660000D03*
X134620000Y-76200000D03*
X129540000Y-71120000D03*
X129540000Y-73660000D03*
X129540000Y-76200000D03*
X129540000Y-127000000D03*
X129540000Y-129540000D03*
X129540000Y-132080000D03*
X124460000Y-127000000D03*
X124460000Y-129540000D03*
X124460000Y-132080000D03*
D15*
X140970000Y-71120000D03*
D16*
X140970000Y-73660000D03*
D15*
X127000000Y-101600000D03*
D16*
X129540000Y-101600000D03*
X127000000Y-104140000D03*
X129540000Y-104140000D03*
X127000000Y-106680000D03*
X129540000Y-106680000D03*
X127000000Y-109220000D03*
X129540000Y-109220000D03*
X127000000Y-111760000D03*
X129540000Y-111760000D03*
X127000000Y-114300000D03*
X129540000Y-114300000D03*
X127000000Y-116840000D03*
X129540000Y-116840000D03*
X127000000Y-119380000D03*
X129540000Y-119380000D03*
X127000000Y-121920000D03*
X129540000Y-121920000D03*
D17*
X111760000Y-73660000D03*
X119380000Y-73660000D03*
D15*
X161290000Y-83820000D03*
D16*
X163830000Y-83820000D03*
X161290000Y-86360000D03*
X163830000Y-86360000D03*
X161290000Y-88900000D03*
X163830000Y-88900000D03*
D20*
X131350000Y-83600000D03*
X131350000Y-81280000D03*
D21*
X138430000Y-81280000D03*
D20*
X131350000Y-79000000D03*
D22*
X149640000Y-82010000D03*
X147320000Y-82010000D03*
D23*
X147320000Y-74930000D03*
D22*
X145040000Y-82010000D03*
D24*
X119380000Y-119380000D02*
X119380000Y-124460000D01*
X147320000Y-74930000D02*
X148590000Y-74930000D01*
X148590000Y-74930000D02*
X154940000Y-81280000D01*
X154940000Y-81280000D02*
X154940000Y-83820000D01*
X154940000Y-88900000D02*
X154940000Y-91440000D01*
X154940000Y-86360000D02*
X154940000Y-88900000D01*
X154940000Y-83820000D02*
X154940000Y-86360000D01*
X142240000Y-99060000D02*
X142240000Y-91440000D01*
X142240000Y-91440000D02*
X154940000Y-91440000D01*
X142240000Y-109220000D02*
X142240000Y-99060000D01*
X149860000Y-121920000D02*
X139700000Y-121920000D01*
X139700000Y-109220000D02*
X142240000Y-109220000D01*
X139700000Y-121920000D02*
X139700000Y-109220000D01*
X144780000Y-99060000D02*
X144780000Y-93980000D01*
X147320000Y-93980000D02*
X147320000Y-99060000D01*
X114300000Y-121920000D02*
X114300000Y-116840000D01*
X132080000Y-91440000D02*
X129540000Y-91440000D01*
X129540000Y-91440000D02*
X129540000Y-101600000D01*
X127000000Y-101600000D02*
X114300000Y-101600000D01*
X129540000Y-101600000D02*
X127000000Y-101600000D01*
X134620000Y-101600000D02*
X129540000Y-101600000D01*
X127000000Y-104140000D02*
X129540000Y-104140000D01*
X119380000Y-104140000D02*
X127000000Y-104140000D01*
X134620000Y-104140000D02*
X129540000Y-104140000D01*
X127000000Y-106680000D02*
X129540000Y-106680000D01*
X134620000Y-106680000D02*
X129540000Y-106680000D01*
X129540000Y-109220000D02*
X127000000Y-109220000D01*
X129540000Y-109220000D02*
X134620000Y-109220000D01*
X119380000Y-106680000D02*
X119380000Y-111760000D01*
X114300000Y-109220000D02*
X114300000Y-104140000D01*
X134620000Y-68580000D02*
X148590000Y-68580000D01*
X153670000Y-71120000D02*
X156845000Y-74295000D01*
X151130000Y-71120000D02*
X153670000Y-71120000D01*
X148590000Y-68580000D02*
X151130000Y-71120000D01*
X134620000Y-71120000D02*
X134620000Y-68580000D01*
X119380000Y-80159860D02*
X123040140Y-83820000D01*
X119380000Y-77470000D02*
X119380000Y-80159860D01*
X116840000Y-74930000D02*
X119380000Y-77470000D01*
X116840000Y-69850000D02*
X116840000Y-74930000D01*
X115570000Y-68580000D02*
X116840000Y-69850000D01*
X116840000Y-68580000D02*
X115570000Y-68580000D01*
X134620000Y-68580000D02*
X116840000Y-68580000D01*
X121920000Y-82699860D02*
X123040140Y-83820000D01*
X149640000Y-82010000D02*
X149640000Y-79790000D01*
X154940000Y-76835000D02*
X156845000Y-76835000D01*
X151130000Y-73025000D02*
X154940000Y-76835000D01*
X149860000Y-73025000D02*
X151130000Y-73025000D01*
X148590000Y-71755000D02*
X149860000Y-73025000D01*
X144145000Y-71755000D02*
X148590000Y-71755000D01*
X144145000Y-77470000D02*
X144145000Y-71755000D01*
X145415000Y-78740000D02*
X144145000Y-77470000D01*
X148590000Y-78740000D02*
X145415000Y-78740000D01*
X149640000Y-79790000D02*
X148590000Y-78740000D01*
X156845000Y-76835000D02*
X156845000Y-78740000D01*
X156845000Y-78740000D02*
X157480000Y-79375000D01*
X157480000Y-79375000D02*
X157480000Y-83820000D01*
X131350000Y-83600000D02*
X133130000Y-83600000D01*
X149640000Y-84870000D02*
X149640000Y-82010000D01*
X149860000Y-85090000D02*
X149640000Y-84870000D01*
X134620000Y-85090000D02*
X149860000Y-85090000D01*
X133130000Y-83600000D02*
X134620000Y-85090000D01*
X131350000Y-83600000D02*
X131350000Y-85630000D01*
X131350000Y-85630000D02*
X132080000Y-86360000D01*
X132080000Y-88900000D02*
X132080000Y-86360000D01*
X124460000Y-87630000D02*
X120929400Y-87630000D01*
X125730000Y-86360000D02*
X124460000Y-87630000D01*
X132080000Y-86360000D02*
X125730000Y-86360000D01*
X120929400Y-87630000D02*
X120040400Y-88519000D01*
X120040400Y-88519000D02*
X120040400Y-90779600D01*
X111760000Y-124460000D02*
X114300000Y-124460000D01*
X111760000Y-95250000D02*
X111760000Y-124460000D01*
X115570000Y-95250000D02*
X111760000Y-95250000D01*
X120040400Y-90779600D02*
X115570000Y-95250000D01*
X117040660Y-83820000D02*
X117040660Y-78940660D01*
X117040660Y-78940660D02*
X111760000Y-73660000D01*
X120040400Y-88519000D02*
X120040400Y-86819740D01*
X120040400Y-86819740D02*
X117040660Y-83820000D01*
X161290000Y-86360000D02*
X161290000Y-83820000D01*
X163830000Y-83820000D02*
X163830000Y-86360000D01*
X163830000Y-83820000D02*
X161290000Y-83820000D01*
X161290000Y-83820000D02*
X157480000Y-83820000D01*
X161290000Y-88900000D02*
X161290000Y-86360000D01*
X163830000Y-88900000D02*
X163830000Y-86360000D01*
X157480000Y-88900000D02*
X157480000Y-91440000D01*
X157480000Y-86360000D02*
X157480000Y-88900000D01*
X157480000Y-83820000D02*
X157480000Y-86360000D01*
X149860000Y-99060000D02*
X149860000Y-96520000D01*
X149860000Y-96520000D02*
X157480000Y-96520000D01*
X157480000Y-96520000D02*
X157480000Y-91440000D01*
X119380000Y-127000000D02*
X116840000Y-127000000D01*
X116840000Y-127000000D02*
X114300000Y-124460000D01*
X149860000Y-99060000D02*
X149860000Y-109220000D01*
X149860000Y-109220000D02*
X152400000Y-109220000D01*
X165100000Y-101600000D02*
X162560000Y-101600000D01*
X152400000Y-101600000D02*
X157480000Y-101600000D01*
X157480000Y-101600000D02*
X162560000Y-101600000D01*
X162560000Y-104140000D02*
X165100000Y-104140000D01*
X157480000Y-104140000D02*
X162560000Y-104140000D01*
X165100000Y-106680000D02*
X162560000Y-106680000D01*
X162560000Y-106680000D02*
X157480000Y-106680000D01*
X165100000Y-109220000D02*
X162560000Y-109220000D01*
X157480000Y-109220000D02*
X162560000Y-109220000D01*
X162560000Y-111760000D02*
X165100000Y-111760000D01*
X162560000Y-111760000D02*
X157480000Y-111760000D01*
X165100000Y-114300000D02*
X162560000Y-114300000D01*
X157480000Y-114300000D02*
X149860000Y-114300000D01*
X157480000Y-114300000D02*
X162560000Y-114300000D01*
X162560000Y-116840000D02*
X165100000Y-116840000D01*
X142240000Y-116840000D02*
X157480000Y-116840000D01*
X162560000Y-116840000D02*
X157480000Y-116840000D01*
X162560000Y-119380000D02*
X165100000Y-119380000D01*
X157480000Y-119380000D02*
X162560000Y-119380000D01*
X165100000Y-121920000D02*
X162560000Y-121920000D01*
X162560000Y-121920000D02*
X157480000Y-121920000D01*
X152400000Y-127000000D02*
X157480000Y-127000000D01*
X127000000Y-111760000D02*
X129540000Y-111760000D01*
X134620000Y-111760000D02*
X129540000Y-111760000D01*
X129540000Y-114300000D02*
X127000000Y-114300000D01*
X129540000Y-114300000D02*
X134620000Y-114300000D01*
X127000000Y-116840000D02*
X129540000Y-116840000D01*
X134620000Y-116840000D02*
X129540000Y-116840000D01*
X129540000Y-119380000D02*
X127000000Y-119380000D01*
X129540000Y-119380000D02*
X134620000Y-119380000D01*
X129540000Y-129540000D02*
X142240000Y-129540000D01*
X142240000Y-129540000D02*
X144780000Y-127000000D01*
X134620000Y-121920000D02*
X137160000Y-121920000D01*
X139700000Y-127000000D02*
X144780000Y-127000000D01*
X137160000Y-124460000D02*
X139700000Y-127000000D01*
X137160000Y-121920000D02*
X137160000Y-124460000D01*
X127000000Y-121920000D02*
X129540000Y-121920000D01*
X134620000Y-121920000D02*
X129540000Y-121920000D01*
X131350000Y-79000000D02*
X135630000Y-79000000D01*
X135630000Y-79000000D02*
X140970000Y-73660000D01*
X124460000Y-73660000D02*
X124460000Y-77470000D01*
X125990000Y-79000000D02*
X131350000Y-79000000D01*
X124460000Y-77470000D02*
X125990000Y-79000000D01*
X119380000Y-73660000D02*
X121920000Y-73660000D01*
X134620000Y-127000000D02*
X129540000Y-127000000D01*
X140970000Y-71120000D02*
X137160000Y-71120000D01*
X137160000Y-73660000D02*
X134620000Y-73660000D01*
X137160000Y-71120000D02*
X137160000Y-73660000D01*
X145040000Y-82010000D02*
X139160000Y-82010000D01*
X139160000Y-82010000D02*
X138430000Y-81280000D01*
M02*
