G04 #@! TF.FileFunction,Copper,L1,Top,Signal*
%FSLAX46Y46*%
G04 Gerber Fmt 4.6, Leading zero omitted, Abs format (unit mm)*
G04 Created by KiCad (PCBNEW 4.0.2+dfsg1-stable) date Пт 14 окт 2016 09:29:28*
%MOMM*%
G01*
G04 APERTURE LIST*
%ADD10C,0.100000*%
%ADD11R,2.032000X2.032000*%
%ADD12O,2.032000X2.032000*%
%ADD13R,1.727200X1.727200*%
%ADD14O,1.727200X1.727200*%
%ADD15C,1.998980*%
%ADD16C,2.000000*%
%ADD17R,3.500120X3.500120*%
%ADD18R,2.000000X2.000000*%
%ADD19C,1.524000*%
%ADD20R,2.000000X1.000000*%
%ADD21R,2.000000X3.000000*%
%ADD22R,1.000000X2.000000*%
%ADD23R,3.000000X2.000000*%
%ADD24R,2.032000X1.727200*%
%ADD25O,2.032000X1.727200*%
%ADD26R,1.700000X0.900000*%
%ADD27R,0.900000X1.700000*%
%ADD28C,0.750000*%
%ADD29C,0.500000*%
G04 APERTURE END LIST*
D10*
D11*
X156845000Y-74295000D03*
D12*
X156845000Y-76835000D03*
D11*
X154940000Y-83820000D03*
D12*
X157480000Y-83820000D03*
D11*
X144780000Y-93980000D03*
D12*
X147320000Y-93980000D03*
D13*
X154940000Y-86360000D03*
D14*
X157480000Y-86360000D03*
X154940000Y-88900000D03*
X157480000Y-88900000D03*
X154940000Y-91440000D03*
X157480000Y-91440000D03*
D15*
X161290000Y-99060000D03*
X161290000Y-91440000D03*
X142240000Y-109220000D03*
X142240000Y-116840000D03*
X149860000Y-114300000D03*
X149860000Y-121920000D03*
D16*
X142240000Y-99060000D03*
X144780000Y-99060000D03*
X147320000Y-99060000D03*
X149860000Y-99060000D03*
X134620000Y-101600000D03*
X134620000Y-104140000D03*
X134620000Y-106680000D03*
X134620000Y-109220000D03*
X134620000Y-111760000D03*
X134620000Y-114300000D03*
X134620000Y-116840000D03*
X134620000Y-119380000D03*
X134620000Y-121920000D03*
X134620000Y-124460000D03*
X134620000Y-127000000D03*
X157480000Y-127000000D03*
X157480000Y-124460000D03*
X157480000Y-121920000D03*
X157480000Y-119380000D03*
X157480000Y-116840000D03*
X157480000Y-114300000D03*
X157480000Y-111760000D03*
X157480000Y-109220000D03*
X157480000Y-106680000D03*
X157480000Y-104140000D03*
X157480000Y-101600000D03*
D17*
X123040140Y-83820000D03*
X117040660Y-83820000D03*
X120040400Y-88519000D03*
D18*
X121920000Y-73660000D03*
D16*
X124460000Y-73660000D03*
D15*
X144780000Y-127000000D03*
X152400000Y-127000000D03*
D19*
X134620000Y-71120000D03*
X134620000Y-73660000D03*
X134620000Y-76200000D03*
X129540000Y-71120000D03*
X129540000Y-73660000D03*
X129540000Y-76200000D03*
X124460000Y-127000000D03*
X124460000Y-124460000D03*
X124460000Y-121920000D03*
X129540000Y-127000000D03*
X129540000Y-124460000D03*
X129540000Y-121920000D03*
D13*
X140970000Y-71120000D03*
D14*
X140970000Y-73660000D03*
D15*
X111760000Y-73660000D03*
X119380000Y-73660000D03*
D20*
X131350000Y-83600000D03*
X131350000Y-81280000D03*
D21*
X138430000Y-81280000D03*
D20*
X131350000Y-79000000D03*
D22*
X149640000Y-82010000D03*
X147320000Y-82010000D03*
D23*
X147320000Y-74930000D03*
D22*
X145040000Y-82010000D03*
D18*
X116840000Y-113030000D03*
D16*
X119380000Y-113030000D03*
D18*
X116840000Y-118110000D03*
D16*
X119380000Y-118110000D03*
D11*
X116840000Y-104140000D03*
D12*
X116840000Y-101600000D03*
D13*
X134620000Y-91440000D03*
D14*
X134620000Y-93980000D03*
D24*
X163830000Y-119380000D03*
D25*
X163830000Y-121920000D03*
X163830000Y-124460000D03*
D15*
X130810000Y-113030000D03*
X123190000Y-113030000D03*
X130810000Y-116840000D03*
X123190000Y-116840000D03*
D24*
X129540000Y-96520000D03*
D25*
X129540000Y-93980000D03*
X129540000Y-91440000D03*
D24*
X163830000Y-104140000D03*
D25*
X163830000Y-106680000D03*
X163830000Y-109220000D03*
X163830000Y-111760000D03*
D26*
X129540000Y-105590000D03*
X129540000Y-102690000D03*
D27*
X133170000Y-97790000D03*
X136070000Y-97790000D03*
X167820000Y-115570000D03*
X164920000Y-115570000D03*
D28*
X123190000Y-113030000D02*
X119380000Y-113030000D01*
X144780000Y-99060000D02*
X144780000Y-93980000D01*
X147320000Y-93980000D02*
X147320000Y-99060000D01*
X123190000Y-116840000D02*
X120650000Y-116840000D01*
X120650000Y-116840000D02*
X119380000Y-118110000D01*
X134620000Y-101600000D02*
X134620000Y-93980000D01*
D29*
X163830000Y-119380000D02*
X163830000Y-116660000D01*
X163830000Y-116660000D02*
X164920000Y-115570000D01*
D28*
X134620000Y-68580000D02*
X148590000Y-68580000D01*
X148590000Y-68580000D02*
X151130000Y-71120000D01*
X151130000Y-71120000D02*
X153670000Y-71120000D01*
X153670000Y-71120000D02*
X156845000Y-74295000D01*
X134620000Y-71120000D02*
X134620000Y-68580000D01*
X119380000Y-80159860D02*
X123040140Y-83820000D01*
X119380000Y-77470000D02*
X119380000Y-80159860D01*
X116840000Y-74930000D02*
X119380000Y-77470000D01*
X116840000Y-69850000D02*
X116840000Y-74930000D01*
X115570000Y-68580000D02*
X116840000Y-69850000D01*
X116840000Y-68580000D02*
X115570000Y-68580000D01*
X134620000Y-68580000D02*
X116840000Y-68580000D01*
X121920000Y-82699860D02*
X123040140Y-83820000D01*
D29*
X129540000Y-91440000D02*
X134620000Y-91440000D01*
X161290000Y-91440000D02*
X157480000Y-91440000D01*
D28*
X134620000Y-91440000D02*
X134620000Y-88900000D01*
X134620000Y-88900000D02*
X132080000Y-86360000D01*
X149640000Y-82010000D02*
X149640000Y-79790000D01*
X154940000Y-76835000D02*
X156845000Y-76835000D01*
X151130000Y-73025000D02*
X154940000Y-76835000D01*
X149860000Y-73025000D02*
X151130000Y-73025000D01*
X148590000Y-71755000D02*
X149860000Y-73025000D01*
X144145000Y-71755000D02*
X148590000Y-71755000D01*
X144145000Y-77470000D02*
X144145000Y-71755000D01*
X145415000Y-78740000D02*
X144145000Y-77470000D01*
X148590000Y-78740000D02*
X145415000Y-78740000D01*
X149640000Y-79790000D02*
X148590000Y-78740000D01*
X156845000Y-76835000D02*
X156845000Y-78740000D01*
X156845000Y-78740000D02*
X157480000Y-79375000D01*
X157480000Y-79375000D02*
X157480000Y-83820000D01*
X131350000Y-83600000D02*
X133130000Y-83600000D01*
X149640000Y-84870000D02*
X149640000Y-82010000D01*
X149860000Y-85090000D02*
X149640000Y-84870000D01*
X134620000Y-85090000D02*
X149860000Y-85090000D01*
X133130000Y-83600000D02*
X134620000Y-85090000D01*
X131350000Y-83600000D02*
X131350000Y-85630000D01*
X131350000Y-85630000D02*
X132080000Y-86360000D01*
X124460000Y-87630000D02*
X120929400Y-87630000D01*
X125730000Y-86360000D02*
X124460000Y-87630000D01*
X132080000Y-86360000D02*
X125730000Y-86360000D01*
X120929400Y-87630000D02*
X120040400Y-88519000D01*
X117040660Y-83820000D02*
X117040660Y-78940660D01*
X117040660Y-78940660D02*
X111760000Y-73660000D01*
X120040400Y-88519000D02*
X120040400Y-86819740D01*
X120040400Y-86819740D02*
X117040660Y-83820000D01*
X157480000Y-88900000D02*
X157480000Y-91440000D01*
X157480000Y-86360000D02*
X157480000Y-88900000D01*
X157480000Y-83820000D02*
X157480000Y-86360000D01*
X149860000Y-99060000D02*
X149860000Y-93980000D01*
X149860000Y-93980000D02*
X157480000Y-93980000D01*
X157480000Y-93980000D02*
X157480000Y-91440000D01*
D29*
X133170000Y-97790000D02*
X130810000Y-97790000D01*
X130810000Y-97790000D02*
X129540000Y-96520000D01*
D28*
X131350000Y-79000000D02*
X135630000Y-79000000D01*
X135630000Y-79000000D02*
X140970000Y-73660000D01*
X124460000Y-73660000D02*
X124460000Y-77470000D01*
X125990000Y-79000000D02*
X131350000Y-79000000D01*
X124460000Y-77470000D02*
X125990000Y-79000000D01*
X119380000Y-73660000D02*
X121920000Y-73660000D01*
X124460000Y-127000000D02*
X124460000Y-128270000D01*
X134620000Y-129540000D02*
X134620000Y-127000000D01*
X125730000Y-129540000D02*
X134620000Y-129540000D01*
X124460000Y-128270000D02*
X125730000Y-129540000D01*
X140970000Y-71120000D02*
X137160000Y-71120000D01*
X137160000Y-73660000D02*
X134620000Y-73660000D01*
X137160000Y-71120000D02*
X137160000Y-73660000D01*
X145040000Y-82010000D02*
X139160000Y-82010000D01*
X139160000Y-82010000D02*
X138430000Y-81280000D01*
D29*
X163830000Y-121920000D02*
X166370000Y-121920000D01*
X166370000Y-119380000D02*
X166370000Y-111760000D01*
X166370000Y-111760000D02*
X163830000Y-111760000D01*
X157480000Y-127000000D02*
X166370000Y-127000000D01*
X166370000Y-127000000D02*
X166370000Y-121920000D01*
X166370000Y-121920000D02*
X166370000Y-119380000D01*
D28*
X116840000Y-118110000D02*
X116840000Y-128270000D01*
X157480000Y-129540000D02*
X157480000Y-127000000D01*
X154940000Y-132080000D02*
X157480000Y-129540000D01*
X120650000Y-132080000D02*
X154940000Y-132080000D01*
X116840000Y-128270000D02*
X120650000Y-132080000D01*
X116840000Y-118110000D02*
X116840000Y-113030000D01*
X116840000Y-113030000D02*
X116840000Y-104140000D01*
X152400000Y-127000000D02*
X157480000Y-127000000D01*
D29*
X116840000Y-101600000D02*
X123190000Y-101600000D01*
X123190000Y-101600000D02*
X125730000Y-104140000D01*
D28*
X125730000Y-104140000D02*
X134620000Y-104140000D01*
D29*
X163830000Y-124460000D02*
X160020000Y-124460000D01*
X159004000Y-121920000D02*
X157480000Y-121920000D01*
X160020000Y-122936000D02*
X159004000Y-121920000D01*
X160020000Y-124460000D02*
X160020000Y-122936000D01*
D28*
X134620000Y-114300000D02*
X132080000Y-114300000D01*
X132080000Y-114300000D02*
X130810000Y-113030000D01*
D29*
X157480000Y-101600000D02*
X158750000Y-101600000D01*
X158750000Y-101600000D02*
X161290000Y-99060000D01*
D28*
X157480000Y-116840000D02*
X142240000Y-116840000D01*
X149860000Y-114300000D02*
X157480000Y-114300000D01*
X130810000Y-116840000D02*
X134620000Y-116840000D01*
X134620000Y-121920000D02*
X132080000Y-121920000D01*
X127000000Y-124460000D02*
X124460000Y-124460000D01*
X127000000Y-119380000D02*
X127000000Y-124460000D01*
X132080000Y-119380000D02*
X127000000Y-119380000D01*
X132080000Y-121920000D02*
X132080000Y-119380000D01*
X134620000Y-121920000D02*
X137160000Y-121920000D01*
X139700000Y-127000000D02*
X144780000Y-127000000D01*
X137160000Y-124460000D02*
X139700000Y-127000000D01*
X137160000Y-121920000D02*
X137160000Y-124460000D01*
D29*
X136070000Y-97790000D02*
X140970000Y-97790000D01*
X140970000Y-97790000D02*
X142240000Y-99060000D01*
X167820000Y-115570000D02*
X167820000Y-104320000D01*
X167640000Y-104140000D02*
X163830000Y-104140000D01*
X167820000Y-104320000D02*
X167640000Y-104140000D01*
X163830000Y-104140000D02*
X163830000Y-96520000D01*
X151130000Y-109220000D02*
X142240000Y-109220000D01*
X153670000Y-106680000D02*
X151130000Y-109220000D01*
X153670000Y-97790000D02*
X153670000Y-106680000D01*
X154940000Y-96520000D02*
X153670000Y-97790000D01*
X163830000Y-96520000D02*
X154940000Y-96520000D01*
D28*
X147320000Y-74930000D02*
X148590000Y-74930000D01*
X148590000Y-74930000D02*
X154940000Y-81280000D01*
X154940000Y-81280000D02*
X154940000Y-83820000D01*
X154940000Y-88900000D02*
X154940000Y-91440000D01*
X154940000Y-86360000D02*
X154940000Y-88900000D01*
X154940000Y-83820000D02*
X154940000Y-86360000D01*
X142240000Y-99060000D02*
X142240000Y-91440000D01*
X142240000Y-91440000D02*
X154940000Y-91440000D01*
X142240000Y-109220000D02*
X142240000Y-99060000D01*
X149860000Y-121920000D02*
X139700000Y-121920000D01*
X139700000Y-109220000D02*
X142240000Y-109220000D01*
X139700000Y-121920000D02*
X139700000Y-109220000D01*
D29*
X129540000Y-93980000D02*
X128270000Y-93980000D01*
X128090000Y-102690000D02*
X129540000Y-102690000D01*
X127000000Y-101600000D02*
X128090000Y-102690000D01*
X127000000Y-95250000D02*
X127000000Y-101600000D01*
X128270000Y-93980000D02*
X127000000Y-95250000D01*
X157480000Y-106680000D02*
X163830000Y-106680000D01*
X163830000Y-109220000D02*
X157480000Y-109220000D01*
X129540000Y-105590000D02*
X130990000Y-105590000D01*
X132080000Y-106680000D02*
X134620000Y-106680000D01*
X130990000Y-105590000D02*
X132080000Y-106680000D01*
M02*
