G04 #@! TF.FileFunction,Copper,L2,Bot,Signal*
%FSLAX46Y46*%
G04 Gerber Fmt 4.6, Leading zero omitted, Abs format (unit mm)*
G04 Created by KiCad (PCBNEW 4.0.2+dfsg1-stable) date Пят 15 Ліп 2016 18:00:04*
%MOMM*%
G01*
G04 APERTURE LIST*
%ADD10C,0.100000*%
%ADD11C,1.524000*%
%ADD12C,2.999740*%
%ADD13C,1.998980*%
%ADD14C,2.998980*%
%ADD15R,3.535200X3.535200*%
%ADD16R,3.635200X3.665200*%
%ADD17R,3.735200X3.735200*%
%ADD18R,2.000000X2.000000*%
%ADD19C,2.000000*%
%ADD20R,2.032000X2.032000*%
%ADD21O,2.032000X2.032000*%
%ADD22R,1.727200X2.032000*%
%ADD23O,1.727200X2.032000*%
%ADD24R,3.235200X3.235200*%
%ADD25R,1.700000X0.900000*%
%ADD26R,3.235200X2.735200*%
%ADD27R,2.235200X2.235200*%
%ADD28C,0.400000*%
G04 APERTURE END LIST*
D10*
D11*
X126746000Y-147066000D03*
X124206000Y-147066000D03*
X129286000Y-147066000D03*
X122936000Y-149606000D03*
X125476000Y-149606000D03*
X128016000Y-149606000D03*
D12*
X132842000Y-151638000D03*
X119380000Y-151638000D03*
D13*
X180340000Y-132080000D03*
D14*
X181610000Y-139700000D03*
D15*
X138430000Y-116840000D03*
D16*
X156210000Y-118110000D03*
D17*
X126238000Y-131064000D03*
D18*
X157480000Y-106680000D03*
D19*
X154940000Y-106680000D03*
D18*
X157480000Y-111760000D03*
D19*
X154940000Y-111760000D03*
D18*
X137160000Y-106680000D03*
D19*
X139700000Y-106680000D03*
D18*
X137160000Y-111760000D03*
D19*
X139700000Y-111760000D03*
D18*
X147320000Y-116840000D03*
D19*
X147320000Y-119380000D03*
D18*
X147320000Y-124460000D03*
D19*
X147320000Y-121920000D03*
D18*
X114300000Y-129540000D03*
D19*
X116840000Y-129540000D03*
D18*
X121920000Y-129540000D03*
D19*
X119380000Y-129540000D03*
D18*
X180340000Y-129540000D03*
D19*
X177800000Y-129540000D03*
D18*
X172720000Y-129540000D03*
D19*
X175260000Y-129540000D03*
D20*
X147320000Y-157480000D03*
D21*
X144780000Y-157480000D03*
D22*
X170180000Y-157480000D03*
D23*
X167640000Y-157480000D03*
X165100000Y-157480000D03*
X162560000Y-157480000D03*
D22*
X157480000Y-157480000D03*
D23*
X154940000Y-157480000D03*
X152400000Y-157480000D03*
D13*
X162560000Y-106680000D03*
X162560000Y-114300000D03*
X160020000Y-111760000D03*
X160020000Y-119380000D03*
X132080000Y-106680000D03*
X132080000Y-114300000D03*
X134620000Y-111760000D03*
X134620000Y-119380000D03*
X147320000Y-114300000D03*
X147320000Y-106680000D03*
D14*
X142240000Y-127000000D03*
D13*
X142240000Y-134620000D03*
X116840000Y-132080000D03*
X116840000Y-139700000D03*
X121920000Y-132080000D03*
D14*
X121920000Y-139700000D03*
D13*
X172720000Y-132080000D03*
X172720000Y-139700000D03*
X152400000Y-148590000D03*
X144780000Y-148590000D03*
D19*
X139700000Y-137160000D03*
X142240000Y-137160000D03*
X144780000Y-137160000D03*
X147320000Y-137160000D03*
X149860000Y-137160000D03*
X160020000Y-137160000D03*
X162560000Y-137160000D03*
X165100000Y-137160000D03*
X167640000Y-137160000D03*
X148590000Y-139700000D03*
X151130000Y-139700000D03*
X160020000Y-152400000D03*
X157480000Y-152400000D03*
X154940000Y-152400000D03*
X152400000Y-152400000D03*
X149860000Y-152400000D03*
X147320000Y-152400000D03*
X144780000Y-152400000D03*
X142240000Y-152400000D03*
X139700000Y-152400000D03*
X162560000Y-152400000D03*
X165100000Y-152400000D03*
X167640000Y-152400000D03*
X152400000Y-137160000D03*
X154940000Y-137160000D03*
X157480000Y-137160000D03*
D24*
X147320000Y-133350000D03*
D25*
X139065000Y-120470000D03*
X139065000Y-123370000D03*
X147320000Y-128090000D03*
X147320000Y-130990000D03*
D26*
X154940000Y-140335000D03*
D25*
X166370000Y-130990000D03*
X166370000Y-128090000D03*
D27*
X176530000Y-132080000D03*
D28*
X157480000Y-106680000D02*
X162560000Y-106680000D01*
X175260000Y-129540000D02*
X175260000Y-130810000D01*
X175260000Y-130810000D02*
X176530000Y-132080000D01*
X147320000Y-128090000D02*
X150315000Y-127455000D01*
X150495000Y-123190000D02*
X151765000Y-121920000D01*
X150495000Y-127275000D02*
X150495000Y-123190000D01*
X150315000Y-127455000D02*
X150495000Y-127275000D01*
X147320000Y-121920000D02*
X124460000Y-121920000D01*
X119380000Y-127000000D02*
X119380000Y-129540000D01*
X124460000Y-121920000D02*
X119380000Y-127000000D01*
X147320000Y-121920000D02*
X151765000Y-121920000D01*
X151765000Y-121920000D02*
X170180000Y-121920000D01*
X175260000Y-127000000D02*
X175260000Y-129540000D01*
X170180000Y-121920000D02*
X175260000Y-127000000D01*
X147320000Y-119380000D02*
X149860000Y-119380000D01*
X154940000Y-114300000D02*
X154940000Y-111760000D01*
X149860000Y-119380000D02*
X154940000Y-114300000D01*
X147320000Y-119380000D02*
X145034000Y-119126000D01*
X139954000Y-114046000D02*
X139700000Y-111760000D01*
X145034000Y-119126000D02*
X139954000Y-114046000D01*
X116840000Y-129540000D02*
X119380000Y-129540000D01*
X175260000Y-129540000D02*
X177800000Y-129540000D01*
X139700000Y-111760000D02*
X139700000Y-106680000D01*
X154940000Y-111760000D02*
X154940000Y-106680000D01*
X147320000Y-119380000D02*
X147320000Y-121920000D01*
X156210000Y-118110000D02*
X156210000Y-113030000D01*
X156210000Y-113030000D02*
X157480000Y-111760000D01*
X157480000Y-111760000D02*
X160020000Y-111760000D01*
X137160000Y-106680000D02*
X132080000Y-106680000D01*
X138430000Y-116840000D02*
X138430000Y-113030000D01*
X138430000Y-113030000D02*
X137160000Y-111760000D01*
X134620000Y-111760000D02*
X137160000Y-111760000D01*
X147320000Y-114300000D02*
X147320000Y-116840000D01*
X147320000Y-124460000D02*
X144780000Y-124460000D01*
X144780000Y-124460000D02*
X142240000Y-127000000D01*
X114300000Y-129540000D02*
X114300000Y-132080000D01*
X114300000Y-132080000D02*
X116840000Y-132080000D01*
X126238000Y-131064000D02*
X121920000Y-132080000D01*
X121920000Y-129540000D02*
X121920000Y-132080000D01*
X180340000Y-129540000D02*
X180340000Y-132080000D01*
X172720000Y-129540000D02*
X170815000Y-129540000D01*
X169365000Y-128090000D02*
X166370000Y-128090000D01*
X170815000Y-129540000D02*
X169365000Y-128090000D01*
X172720000Y-129540000D02*
X172720000Y-132080000D01*
X139446000Y-129540000D02*
X138430000Y-129540000D01*
X138430000Y-129540000D02*
X138176000Y-129794000D01*
X125730000Y-139700000D02*
X135890000Y-129540000D01*
X125730000Y-139700000D02*
X121920000Y-139700000D01*
X135890000Y-129540000D02*
X138430000Y-129540000D01*
X139065000Y-123370000D02*
X139065000Y-129540000D01*
X170180000Y-134620000D02*
X172720000Y-137160000D01*
X170180000Y-132080000D02*
X170180000Y-134620000D01*
X167640000Y-129540000D02*
X170180000Y-132080000D01*
X172720000Y-137160000D02*
X172720000Y-139700000D01*
X139065000Y-129540000D02*
X139446000Y-129540000D01*
X139446000Y-129540000D02*
X141732000Y-129540000D01*
X141732000Y-129540000D02*
X167640000Y-129540000D01*
X172720000Y-139700000D02*
X180340000Y-139700000D01*
X162560000Y-114300000D02*
X162560000Y-109220000D01*
X147955000Y-104775000D02*
X147320000Y-105410000D01*
X164465000Y-104775000D02*
X147955000Y-104775000D01*
X164465000Y-107315000D02*
X164465000Y-104775000D01*
X162560000Y-109220000D02*
X164465000Y-107315000D01*
X146685000Y-104775000D02*
X147320000Y-105410000D01*
X147320000Y-105410000D02*
X147320000Y-106680000D01*
X162560000Y-114300000D02*
X162560000Y-118110000D01*
X161290000Y-119380000D02*
X160020000Y-119380000D01*
X162560000Y-118110000D02*
X161290000Y-119380000D01*
X132080000Y-114300000D02*
X132080000Y-115824000D01*
X132080000Y-114300000D02*
X132080000Y-109220000D01*
X132080000Y-109220000D02*
X130175000Y-107315000D01*
X130175000Y-107315000D02*
X130175000Y-104775000D01*
X130175000Y-104775000D02*
X146685000Y-104775000D01*
X132080000Y-115824000D02*
X132080000Y-118110000D01*
X132080000Y-118110000D02*
X133350000Y-119380000D01*
X134620000Y-119380000D02*
X138610000Y-119380000D01*
X138610000Y-119380000D02*
X139065000Y-120470000D01*
X138610000Y-119380000D02*
X139065000Y-120470000D01*
X133350000Y-119380000D02*
X134620000Y-119380000D01*
X147320000Y-133350000D02*
X147320000Y-130990000D01*
X166370000Y-130990000D02*
X166370000Y-132080000D01*
X168275000Y-140335000D02*
X154940000Y-140335000D01*
X170180000Y-138430000D02*
X168275000Y-140335000D01*
X170180000Y-135890000D02*
X170180000Y-138430000D01*
X166370000Y-132080000D02*
X170180000Y-135890000D01*
M02*
