G04 #@! TF.FileFunction,Copper,L1,Top,Signal*
%FSLAX46Y46*%
G04 Gerber Fmt 4.6, Leading zero omitted, Abs format (unit mm)*
G04 Created by KiCad (PCBNEW 4.0.2+dfsg1-stable) date Пят 15 Ліп 2016 18:00:04*
%MOMM*%
G01*
G04 APERTURE LIST*
%ADD10C,0.100000*%
%ADD11C,1.524000*%
%ADD12C,2.999740*%
%ADD13C,1.998980*%
%ADD14C,2.998980*%
%ADD15R,3.535200X3.535200*%
%ADD16R,3.635200X3.665200*%
%ADD17R,3.735200X3.735200*%
%ADD18R,2.000000X2.000000*%
%ADD19C,2.000000*%
%ADD20R,2.032000X2.032000*%
%ADD21O,2.032000X2.032000*%
%ADD22R,1.727200X2.032000*%
%ADD23O,1.727200X2.032000*%
%ADD24R,3.235200X3.235200*%
%ADD25R,3.235200X2.735200*%
%ADD26R,1.700000X0.900000*%
%ADD27R,2.235200X2.235200*%
%ADD28C,0.400000*%
G04 APERTURE END LIST*
D10*
D11*
X126746000Y-147066000D03*
X124206000Y-147066000D03*
X129286000Y-147066000D03*
X122936000Y-149606000D03*
X125476000Y-149606000D03*
X128016000Y-149606000D03*
D12*
X132842000Y-151638000D03*
X119380000Y-151638000D03*
D13*
X180340000Y-132080000D03*
D14*
X181610000Y-139700000D03*
D15*
X138430000Y-116840000D03*
D16*
X156210000Y-118110000D03*
D17*
X126238000Y-131064000D03*
D18*
X157480000Y-106680000D03*
D19*
X154940000Y-106680000D03*
D18*
X157480000Y-111760000D03*
D19*
X154940000Y-111760000D03*
D18*
X137160000Y-106680000D03*
D19*
X139700000Y-106680000D03*
D18*
X137160000Y-111760000D03*
D19*
X139700000Y-111760000D03*
D18*
X147320000Y-116840000D03*
D19*
X147320000Y-119380000D03*
D18*
X147320000Y-124460000D03*
D19*
X147320000Y-121920000D03*
D18*
X114300000Y-129540000D03*
D19*
X116840000Y-129540000D03*
D18*
X121920000Y-129540000D03*
D19*
X119380000Y-129540000D03*
D18*
X180340000Y-129540000D03*
D19*
X177800000Y-129540000D03*
D18*
X172720000Y-129540000D03*
D19*
X175260000Y-129540000D03*
D20*
X147320000Y-157480000D03*
D21*
X144780000Y-157480000D03*
D22*
X170180000Y-157480000D03*
D23*
X167640000Y-157480000D03*
X165100000Y-157480000D03*
X162560000Y-157480000D03*
D22*
X157480000Y-157480000D03*
D23*
X154940000Y-157480000D03*
X152400000Y-157480000D03*
D13*
X162560000Y-106680000D03*
X162560000Y-114300000D03*
X160020000Y-111760000D03*
X160020000Y-119380000D03*
X132080000Y-106680000D03*
X132080000Y-114300000D03*
X134620000Y-111760000D03*
X134620000Y-119380000D03*
X147320000Y-114300000D03*
X147320000Y-106680000D03*
D14*
X142240000Y-127000000D03*
D13*
X142240000Y-134620000D03*
X116840000Y-132080000D03*
X116840000Y-139700000D03*
X121920000Y-132080000D03*
D14*
X121920000Y-139700000D03*
D13*
X172720000Y-132080000D03*
X172720000Y-139700000D03*
X152400000Y-148590000D03*
X144780000Y-148590000D03*
D19*
X139700000Y-137160000D03*
X142240000Y-137160000D03*
X144780000Y-137160000D03*
X147320000Y-137160000D03*
X149860000Y-137160000D03*
X160020000Y-137160000D03*
X162560000Y-137160000D03*
X165100000Y-137160000D03*
X167640000Y-137160000D03*
X148590000Y-139700000D03*
X151130000Y-139700000D03*
X160020000Y-152400000D03*
X157480000Y-152400000D03*
X154940000Y-152400000D03*
X152400000Y-152400000D03*
X149860000Y-152400000D03*
X147320000Y-152400000D03*
X144780000Y-152400000D03*
X142240000Y-152400000D03*
X139700000Y-152400000D03*
X162560000Y-152400000D03*
X165100000Y-152400000D03*
X167640000Y-152400000D03*
X152400000Y-137160000D03*
X154940000Y-137160000D03*
X157480000Y-137160000D03*
D24*
X147320000Y-133350000D03*
D25*
X154940000Y-140335000D03*
D26*
X175260000Y-158570000D03*
X175260000Y-161470000D03*
D27*
X176530000Y-132080000D03*
D28*
X175260000Y-158570000D02*
X175260000Y-149860000D01*
X178816000Y-133604000D02*
X177292000Y-132080000D01*
X178816000Y-146304000D02*
X178816000Y-133604000D01*
X175260000Y-149860000D02*
X178816000Y-146304000D01*
X177292000Y-132080000D02*
X176530000Y-132080000D01*
X170180000Y-157480000D02*
X174170000Y-157480000D01*
X174170000Y-157480000D02*
X175260000Y-158570000D01*
X156210000Y-118110000D02*
X156210000Y-132080000D01*
X157480000Y-133350000D02*
X157480000Y-137160000D01*
X156210000Y-132080000D02*
X157480000Y-133350000D01*
X138430000Y-116840000D02*
X138430000Y-126746000D01*
X152400000Y-134620000D02*
X152400000Y-137160000D01*
X151384000Y-133604000D02*
X152400000Y-134620000D01*
X151384000Y-130048000D02*
X151384000Y-133604000D01*
X150622000Y-129286000D02*
X151384000Y-130048000D01*
X140970000Y-129286000D02*
X150622000Y-129286000D01*
X138430000Y-126746000D02*
X140970000Y-129286000D01*
X142240000Y-127000000D02*
X151765000Y-127000000D01*
X152400000Y-127508000D02*
X152400000Y-127635000D01*
X152273000Y-127508000D02*
X152400000Y-127508000D01*
X151765000Y-127000000D02*
X152273000Y-127508000D01*
X154940000Y-130175000D02*
X154940000Y-137160000D01*
X152400000Y-127635000D02*
X154940000Y-130175000D01*
X149860000Y-137160000D02*
X149860000Y-130810000D01*
X127508000Y-129794000D02*
X126238000Y-131064000D01*
X149860000Y-130810000D02*
X127508000Y-129794000D01*
X160020000Y-137160000D02*
X160020000Y-135636000D01*
X126746000Y-145542000D02*
X126746000Y-147066000D01*
X127508000Y-144780000D02*
X126746000Y-145542000D01*
X134112000Y-144780000D02*
X127508000Y-144780000D01*
X135636000Y-146304000D02*
X134112000Y-144780000D01*
X153924000Y-146304000D02*
X135636000Y-146304000D01*
X154432000Y-146812000D02*
X153924000Y-146304000D01*
X171704000Y-146812000D02*
X154432000Y-146812000D01*
X176784000Y-141732000D02*
X171704000Y-146812000D01*
X176784000Y-138684000D02*
X176784000Y-141732000D01*
X171196000Y-133096000D02*
X176784000Y-138684000D01*
X162560000Y-133096000D02*
X171196000Y-133096000D01*
X160020000Y-135636000D02*
X162560000Y-133096000D01*
X124206000Y-147066000D02*
X124206000Y-146304000D01*
X124206000Y-146304000D02*
X127254000Y-143256000D01*
X127254000Y-143256000D02*
X141224000Y-143256000D01*
X141224000Y-143256000D02*
X145415000Y-145415000D01*
X145415000Y-145415000D02*
X171450000Y-145415000D01*
X171450000Y-145415000D02*
X175260000Y-141605000D01*
X175260000Y-141605000D02*
X175260000Y-139065000D01*
X175260000Y-139065000D02*
X170307000Y-134112000D01*
X170307000Y-134112000D02*
X164084000Y-134112000D01*
X164084000Y-134112000D02*
X162560000Y-135636000D01*
X162560000Y-135636000D02*
X162560000Y-137160000D01*
X127508000Y-135636000D02*
X138176000Y-135636000D01*
X129286000Y-154686000D02*
X128016000Y-155956000D01*
X128016000Y-155956000D02*
X114808000Y-155956000D01*
X114808000Y-155956000D02*
X114808000Y-135636000D01*
X114808000Y-135636000D02*
X127508000Y-135636000D01*
X129286000Y-147066000D02*
X129286000Y-154686000D01*
X138176000Y-135636000D02*
X139700000Y-137160000D01*
X165100000Y-137160000D02*
X165100000Y-135890000D01*
X121920000Y-149225000D02*
X122301000Y-149606000D01*
X121920000Y-144780000D02*
X121920000Y-149225000D01*
X123825000Y-144780000D02*
X121920000Y-144780000D01*
X128270000Y-141224000D02*
X123825000Y-144780000D01*
X140970000Y-141224000D02*
X128270000Y-141224000D01*
X141605000Y-140970000D02*
X140970000Y-141224000D01*
X142875000Y-140970000D02*
X141605000Y-140970000D01*
X146050000Y-144145000D02*
X142875000Y-140970000D01*
X163830000Y-144145000D02*
X146050000Y-144145000D01*
X170180000Y-137795000D02*
X163830000Y-144145000D01*
X170180000Y-135890000D02*
X170180000Y-137795000D01*
X169545000Y-135255000D02*
X170180000Y-135890000D01*
X165735000Y-135255000D02*
X169545000Y-135255000D01*
X165100000Y-135890000D02*
X165735000Y-135255000D01*
X122301000Y-149606000D02*
X122936000Y-149606000D01*
X165100000Y-137160000D02*
X165100000Y-136525000D01*
X125476000Y-152019000D02*
X125476000Y-149606000D01*
X124460000Y-153035000D02*
X125476000Y-152019000D01*
X123825000Y-153035000D02*
X124460000Y-153035000D01*
X118110000Y-147320000D02*
X123825000Y-153035000D01*
X118110000Y-146050000D02*
X118110000Y-147320000D01*
X121285000Y-142875000D02*
X118110000Y-146050000D01*
X123168582Y-144028884D02*
X121285000Y-142875000D01*
X126954924Y-140345778D02*
X123168582Y-144028884D01*
X131421342Y-140334894D02*
X126954924Y-140345778D01*
X143510000Y-140208000D02*
X131421342Y-140334894D01*
X147320000Y-142875000D02*
X143510000Y-140208000D01*
X156845000Y-142875000D02*
X147320000Y-142875000D01*
X157480000Y-142240000D02*
X156845000Y-142875000D01*
X163195000Y-142240000D02*
X157480000Y-142240000D01*
X167640000Y-137795000D02*
X163195000Y-142240000D01*
X167640000Y-137160000D02*
X167640000Y-137795000D01*
X142240000Y-137160000D02*
X142240000Y-139192000D01*
X123444000Y-138176000D02*
X121920000Y-139700000D01*
X127508000Y-138176000D02*
X123444000Y-138176000D01*
X128524000Y-139192000D02*
X127508000Y-138176000D01*
X142240000Y-139192000D02*
X128524000Y-139192000D01*
X128016000Y-149606000D02*
X128016000Y-152908000D01*
X128016000Y-152908000D02*
X126492000Y-154432000D01*
X126492000Y-154432000D02*
X116840000Y-154432000D01*
X116840000Y-154432000D02*
X116840000Y-143256000D01*
X116840000Y-143256000D02*
X118364000Y-141732000D01*
X118364000Y-141732000D02*
X119888000Y-141732000D01*
X119888000Y-141732000D02*
X121920000Y-139700000D01*
X121920000Y-139700000D02*
X116840000Y-139700000D01*
X142240000Y-137160000D02*
X142240000Y-134620000D01*
X162560000Y-157480000D02*
X165100000Y-160020000D01*
X180340000Y-139700000D02*
X180340000Y-139700000D01*
X180340000Y-160020000D02*
X180340000Y-159385000D01*
X180340000Y-159385000D02*
X180340000Y-139700000D01*
X165100000Y-160020000D02*
X180340000Y-160020000D01*
X162560000Y-157480000D02*
X160020000Y-160020000D01*
X154940000Y-160020000D02*
X154940000Y-157480000D01*
X160020000Y-160020000D02*
X154940000Y-160020000D01*
X142240000Y-137160000D02*
X142240000Y-136652000D01*
X147320000Y-157480000D02*
X147320000Y-152400000D01*
X137160000Y-154940000D02*
X139700000Y-157480000D01*
X137160000Y-151130000D02*
X137160000Y-154940000D01*
X139700000Y-148590000D02*
X137160000Y-151130000D01*
X144780000Y-148590000D02*
X139700000Y-148590000D01*
X139700000Y-157480000D02*
X144780000Y-157480000D01*
X167640000Y-157480000D02*
X167640000Y-152400000D01*
X165100000Y-152400000D02*
X165100000Y-157480000D01*
X157480000Y-157480000D02*
X157480000Y-152400000D01*
X152400000Y-148590000D02*
X152400000Y-152400000D01*
X147320000Y-137160000D02*
X147320000Y-133350000D01*
X154940000Y-140335000D02*
X151765000Y-140335000D01*
X151765000Y-140335000D02*
X151130000Y-139700000D01*
X175260000Y-161470000D02*
X153342000Y-161470000D01*
X152400000Y-160528000D02*
X152400000Y-157480000D01*
X153342000Y-161470000D02*
X152400000Y-160528000D01*
M02*
