G04 #@! TF.FileFunction,Copper,L1,Top,Signal*
%FSLAX46Y46*%
G04 Gerber Fmt 4.6, Leading zero omitted, Abs format (unit mm)*
G04 Created by KiCad (PCBNEW 4.0.2+dfsg1-stable) date Няд 22 Тра 2016 12:05:22*
%MOMM*%
G01*
G04 APERTURE LIST*
%ADD10C,0.100000*%
%ADD11R,2.032000X1.727200*%
%ADD12O,2.032000X1.727200*%
%ADD13R,1.727200X2.032000*%
%ADD14O,1.727200X2.032000*%
%ADD15C,1.998980*%
%ADD16C,1.524000*%
%ADD17C,0.750000*%
G04 APERTURE END LIST*
D10*
D11*
X152400000Y-121920000D03*
D12*
X152400000Y-124460000D03*
X152400000Y-127000000D03*
D11*
X170180000Y-124460000D03*
D12*
X170180000Y-127000000D03*
X170180000Y-129540000D03*
X170180000Y-132080000D03*
D13*
X162560000Y-104140000D03*
D14*
X165100000Y-104140000D03*
X167640000Y-104140000D03*
X170180000Y-104140000D03*
D15*
X147320000Y-127000000D03*
X147320000Y-134620000D03*
X157480000Y-139700000D03*
X149860000Y-139700000D03*
X165100000Y-109220000D03*
X165100000Y-116840000D03*
X167640000Y-109220000D03*
X167640000Y-116840000D03*
D16*
X149860000Y-144780000D03*
X152400000Y-144780000D03*
X154940000Y-144780000D03*
X149860000Y-149860000D03*
X152400000Y-149860000D03*
X154940000Y-149860000D03*
X147320000Y-104140000D03*
X149860000Y-104140000D03*
X152400000Y-104140000D03*
X147320000Y-109220000D03*
X149860000Y-109220000D03*
X152400000Y-109220000D03*
D17*
X152400000Y-127000000D02*
X160020000Y-127000000D01*
X165100000Y-124460000D02*
X172720000Y-116840000D01*
X162560000Y-124460000D02*
X165100000Y-124460000D01*
X160020000Y-127000000D02*
X162560000Y-124460000D01*
X152400000Y-121920000D02*
X154940000Y-121920000D01*
X154940000Y-121920000D02*
X163830000Y-113030000D01*
X163830000Y-113030000D02*
X171450000Y-113030000D01*
X171450000Y-113030000D02*
X172720000Y-114300000D01*
X172720000Y-114300000D02*
X172720000Y-116840000D01*
X172720000Y-127000000D02*
X170180000Y-127000000D01*
X172720000Y-116840000D02*
X172720000Y-120650000D01*
X172720000Y-120650000D02*
X173990000Y-121920000D01*
X173990000Y-121920000D02*
X173990000Y-125730000D01*
X173990000Y-125730000D02*
X172720000Y-127000000D01*
X147320000Y-109220000D02*
X147320000Y-127000000D01*
X152400000Y-127000000D02*
X147320000Y-127000000D01*
X154940000Y-144780000D02*
X170180000Y-144780000D01*
X170180000Y-144780000D02*
X170180000Y-132080000D01*
X152400000Y-124460000D02*
X160020000Y-124460000D01*
X165100000Y-119380000D02*
X165100000Y-116840000D01*
X160020000Y-124460000D02*
X165100000Y-119380000D01*
X154940000Y-144780000D02*
X154940000Y-147320000D01*
X152400000Y-106680000D02*
X152400000Y-109220000D01*
X144780000Y-106680000D02*
X152400000Y-106680000D01*
X142240000Y-109220000D02*
X144780000Y-106680000D01*
X142240000Y-144780000D02*
X142240000Y-109220000D01*
X144780000Y-147320000D02*
X142240000Y-144780000D01*
X154940000Y-147320000D02*
X144780000Y-147320000D01*
X165100000Y-116840000D02*
X167640000Y-116840000D01*
X152400000Y-109220000D02*
X152400000Y-116840000D01*
X149860000Y-124460000D02*
X152400000Y-124460000D01*
X149860000Y-119380000D02*
X149860000Y-124460000D01*
X152400000Y-116840000D02*
X149860000Y-119380000D01*
X170180000Y-124460000D02*
X167640000Y-124460000D01*
X144780000Y-139700000D02*
X149860000Y-139700000D01*
X144780000Y-132080000D02*
X144780000Y-139700000D01*
X160020000Y-132080000D02*
X144780000Y-132080000D01*
X167640000Y-124460000D02*
X160020000Y-132080000D01*
X149860000Y-139700000D02*
X149860000Y-144780000D01*
X157480000Y-139700000D02*
X165100000Y-132080000D01*
X167640000Y-129540000D02*
X170180000Y-129540000D01*
X165100000Y-132080000D02*
X167640000Y-129540000D01*
X167640000Y-101600000D02*
X172720000Y-101600000D01*
X172720000Y-101600000D02*
X176530000Y-105410000D01*
X176530000Y-105410000D02*
X176530000Y-129540000D01*
X176530000Y-129540000D02*
X170180000Y-129540000D01*
X167640000Y-104140000D02*
X167640000Y-101600000D01*
X162560000Y-101600000D02*
X162560000Y-104140000D01*
X167640000Y-101600000D02*
X162560000Y-101600000D01*
X147320000Y-134620000D02*
X149860000Y-134620000D01*
X152400000Y-134620000D02*
X157480000Y-139700000D01*
X149860000Y-134620000D02*
X152400000Y-134620000D01*
X165100000Y-104140000D02*
X165100000Y-109220000D01*
X167640000Y-109220000D02*
X170180000Y-106680000D01*
X170180000Y-106680000D02*
X170180000Y-104140000D01*
M02*
