G04 #@! TF.FileFunction,Copper,L1,Top,Signal*
%FSLAX46Y46*%
G04 Gerber Fmt 4.6, Leading zero omitted, Abs format (unit mm)*
G04 Created by KiCad (PCBNEW 4.0.2+dfsg1-stable) date Пят 15 Ліп 2016 17:59:39*
%MOMM*%
G01*
G04 APERTURE LIST*
%ADD10C,0.100000*%
%ADD11C,1.524000*%
%ADD12C,2.999740*%
%ADD13O,1.600000X1.600000*%
%ADD14C,2.000000*%
%ADD15R,2.032000X2.032000*%
%ADD16O,2.032000X2.032000*%
%ADD17R,0.900000X1.700000*%
%ADD18R,1.700000X0.900000*%
%ADD19R,1.727200X2.032000*%
%ADD20O,1.727200X2.032000*%
%ADD21C,0.450000*%
G04 APERTURE END LIST*
D10*
D11*
X181610000Y-106172000D03*
X181610000Y-108712000D03*
X181610000Y-103632000D03*
X184150000Y-109982000D03*
X184150000Y-107442000D03*
X184150000Y-104902000D03*
D12*
X186182000Y-100076000D03*
X186182000Y-113538000D03*
D13*
X139700000Y-106680000D03*
X139700000Y-109220000D03*
X139700000Y-111760000D03*
X139700000Y-114300000D03*
X139700000Y-116840000D03*
X139700000Y-119380000D03*
X139700000Y-121920000D03*
X139700000Y-124460000D03*
X147320000Y-124460000D03*
X147320000Y-121920000D03*
X147320000Y-119380000D03*
X147320000Y-116840000D03*
X147320000Y-114300000D03*
X147320000Y-111760000D03*
X147320000Y-109220000D03*
X147320000Y-106680000D03*
D14*
X172720000Y-96520000D03*
X172720000Y-99060000D03*
X172720000Y-101600000D03*
X172720000Y-104140000D03*
X172720000Y-106680000D03*
X172720000Y-116840000D03*
X172720000Y-119380000D03*
X172720000Y-121920000D03*
X172720000Y-124460000D03*
X170180000Y-105410000D03*
X170180000Y-107950000D03*
X157480000Y-116840000D03*
X157480000Y-114300000D03*
X157480000Y-111760000D03*
X157480000Y-109220000D03*
X157480000Y-106680000D03*
X157480000Y-104140000D03*
X157480000Y-101600000D03*
X157480000Y-99060000D03*
X157480000Y-96520000D03*
X157480000Y-119380000D03*
X157480000Y-121920000D03*
X157480000Y-124460000D03*
X172720000Y-109220000D03*
X172720000Y-111760000D03*
X172720000Y-114300000D03*
D15*
X152400000Y-114300000D03*
D16*
X152400000Y-116840000D03*
D15*
X134620000Y-116840000D03*
D16*
X134620000Y-114300000D03*
D17*
X144960000Y-116840000D03*
X142060000Y-116840000D03*
D18*
X144780000Y-130990000D03*
X144780000Y-128090000D03*
X139700000Y-130990000D03*
X139700000Y-128090000D03*
D19*
X184912000Y-125476000D03*
D20*
X182372000Y-125476000D03*
X179832000Y-125476000D03*
D18*
X167640000Y-101420000D03*
X167640000Y-104320000D03*
D21*
X181610000Y-106172000D02*
X180848000Y-106172000D01*
X180848000Y-106172000D02*
X175260000Y-111760000D01*
X175260000Y-111760000D02*
X175260000Y-115570000D01*
X175260000Y-115570000D02*
X173990000Y-116840000D01*
X173990000Y-116840000D02*
X172720000Y-116840000D01*
X181610000Y-108712000D02*
X181610000Y-109220000D01*
X181610000Y-109220000D02*
X176530000Y-114300000D01*
X176530000Y-114300000D02*
X176530000Y-116840000D01*
X176530000Y-116840000D02*
X173990000Y-119380000D01*
X173990000Y-119380000D02*
X172720000Y-119380000D01*
X181610000Y-103632000D02*
X181610000Y-102870000D01*
X181610000Y-102870000D02*
X175260000Y-96520000D01*
X175260000Y-96520000D02*
X172720000Y-96520000D01*
X172720000Y-121920000D02*
X175260000Y-121920000D01*
X182880000Y-111252000D02*
X184150000Y-109982000D01*
X182880000Y-114300000D02*
X182880000Y-111252000D01*
X175260000Y-121920000D02*
X182880000Y-114300000D01*
X184150000Y-107442000D02*
X187706000Y-107442000D01*
X182372000Y-121666000D02*
X182372000Y-125476000D01*
X189738000Y-114300000D02*
X182372000Y-121666000D01*
X189738000Y-109474000D02*
X189738000Y-114300000D01*
X187706000Y-107442000D02*
X189738000Y-109474000D01*
X184150000Y-107442000D02*
X184912000Y-107442000D01*
X184150000Y-104902000D02*
X184150000Y-102870000D01*
X168910000Y-94488000D02*
X158750000Y-104140000D01*
X175260000Y-94488000D02*
X168910000Y-94488000D01*
X184150000Y-102870000D02*
X175260000Y-94488000D01*
X144780000Y-130990000D02*
X159840000Y-130990000D01*
X160020000Y-104140000D02*
X158750000Y-104140000D01*
X158750000Y-104140000D02*
X157480000Y-104140000D01*
X161290000Y-105410000D02*
X160020000Y-104140000D01*
X161290000Y-129540000D02*
X161290000Y-105410000D01*
X159840000Y-130990000D02*
X161290000Y-129540000D01*
X134620000Y-116840000D02*
X137160000Y-119380000D01*
X137160000Y-119380000D02*
X139700000Y-119380000D01*
X139700000Y-111760000D02*
X137160000Y-111760000D01*
X137160000Y-111760000D02*
X134620000Y-114300000D01*
X139700000Y-106680000D02*
X137160000Y-104140000D01*
X154940000Y-109220000D02*
X157480000Y-109220000D01*
X147320000Y-101600000D02*
X154940000Y-109220000D01*
X137160000Y-101600000D02*
X147320000Y-101600000D01*
X137160000Y-104140000D02*
X137160000Y-101600000D01*
X136398000Y-109220000D02*
X139700000Y-109220000D01*
X135382000Y-109220000D02*
X136398000Y-109220000D01*
X157480000Y-106680000D02*
X156210000Y-106680000D01*
X135382000Y-105918000D02*
X135382000Y-109220000D01*
X135382000Y-100330000D02*
X135382000Y-105918000D01*
X136144000Y-99568000D02*
X135382000Y-100330000D01*
X149098000Y-99568000D02*
X136144000Y-99568000D01*
X156210000Y-106680000D02*
X149098000Y-99568000D01*
X137160000Y-127000000D02*
X137160000Y-129540000D01*
X137160000Y-121920000D02*
X137160000Y-127000000D01*
X139700000Y-121920000D02*
X137160000Y-121920000D01*
X160020000Y-111760000D02*
X157480000Y-111760000D01*
X160020000Y-129540000D02*
X160020000Y-111760000D01*
X137160000Y-129540000D02*
X160020000Y-129540000D01*
X147320000Y-124460000D02*
X157480000Y-124460000D01*
X157480000Y-121920000D02*
X147320000Y-121920000D01*
X147320000Y-109220000D02*
X149860000Y-109220000D01*
X154940000Y-111760000D02*
X157480000Y-114300000D01*
X152400000Y-111760000D02*
X154940000Y-111760000D01*
X149860000Y-109220000D02*
X152400000Y-111760000D01*
X147320000Y-111760000D02*
X149860000Y-111760000D01*
X149860000Y-111760000D02*
X152400000Y-114300000D01*
X152400000Y-116840000D02*
X149860000Y-119380000D01*
X149860000Y-119380000D02*
X147320000Y-119380000D01*
X147320000Y-116840000D02*
X144960000Y-116840000D01*
X147320000Y-116840000D02*
X147320000Y-114300000D01*
X144780000Y-128090000D02*
X144780000Y-117020000D01*
X144780000Y-117020000D02*
X144960000Y-116840000D01*
X139700000Y-116840000D02*
X139700000Y-114300000D01*
X142060000Y-116840000D02*
X139700000Y-116840000D01*
X139700000Y-130990000D02*
X139446000Y-132588000D01*
X171450000Y-102870000D02*
X172720000Y-104140000D01*
X166370000Y-102870000D02*
X171450000Y-102870000D01*
X162560000Y-106680000D02*
X166370000Y-102870000D01*
X162560000Y-132080000D02*
X162560000Y-106680000D01*
X161036000Y-132588000D02*
X162560000Y-132080000D01*
X139446000Y-132588000D02*
X161036000Y-132588000D01*
X139700000Y-128090000D02*
X139700000Y-124460000D01*
X147320000Y-106680000D02*
X143510000Y-106680000D01*
X143510000Y-124460000D02*
X139700000Y-124460000D01*
X143510000Y-106680000D02*
X143510000Y-124460000D01*
X184912000Y-125476000D02*
X184912000Y-129032000D01*
X167640000Y-126238000D02*
X167640000Y-104320000D01*
X171704000Y-130302000D02*
X167640000Y-126238000D01*
X183642000Y-130302000D02*
X171704000Y-130302000D01*
X184912000Y-129032000D02*
X183642000Y-130302000D01*
X179832000Y-125476000D02*
X179324000Y-125476000D01*
X179324000Y-125476000D02*
X172720000Y-124460000D01*
X172720000Y-101600000D02*
X167820000Y-101600000D01*
X167820000Y-101600000D02*
X167640000Y-101420000D01*
M02*
